$MeshFormat
4.1 0 8
$EndMeshFormat
$PhysicalNames
3
1 2 "APERTURE_BOUNDARY"
2 1 "BODY"
2 3 "TEMP_COVER"
$EndPhysicalNames
$Entities
12 28 7 0
1 0 -1 0 0 
2 7 -1 0 0 
3 7 1 0 0 
4 0 1 0 0 
5 0 -1 2 0 
6 7 -1 2 0 
7 7 1 2 0 
8 0 1 2 0 
9 3 1 0.5 0 
10 4 1 0.5 0 
11 4 1 1.5 0 
12 3 1 1.5 0 
1 0 -1 0 7 -1 0 0 2 1 -2 
2 7 -1 0 7 1 0 0 2 2 -3 
3 0 1 0 7 1 0 0 2 3 -4 
4 0 -1 0 0 1 0 0 2 4 -1 
5 0 -1 2 0 1 2 0 2 5 -8 
6 0 1 2 7 1 2 0 2 8 -7 
7 7 -1 2 7 1 2 0 2 7 -6 
8 0 -1 2 7 -1 2 0 2 6 -5 
9 0 -1 0 0 -1 2 0 2 1 -5 
10 0 -1 2 7 -1 2 0 2 5 -6 
11 7 -1 0 7 -1 2 0 2 6 -2 
12 0 -1 0 7 -1 0 0 2 2 -1 
13 0 -1 0 0 1 0 0 2 1 -4 
14 0 1 0 0 1 2 0 2 4 -8 
15 0 -1 2 0 1 2 0 2 8 -5 
16 0 -1 0 0 -1 2 0 2 5 -1 
17 7 -1 0 7 -1 2 0 2 2 -6 
18 7 -1 2 7 1 2 0 2 6 -7 
19 7 1 0 7 1 2 0 2 7 -3 
20 7 -1 0 7 1 0 0 2 3 -2 
21 0 1 0 7 1 0 0 2 4 -3 
22 7 1 0 7 1 2 0 2 3 -7 
23 0 1 2 7 1 2 0 2 7 -8 
24 0 1 0 0 1 2 0 2 8 -4 
25 3 1 0.5 4 1 0.5 1 2 2 9 -10 
26 4 1 0.5 4 1 1.5 1 2 2 10 -11 
27 3 1 1.5 4 1 1.5 1 2 2 11 -12 
28 3 1 0.5 3 1 1.5 1 2 2 12 -9 
1 0 -1 0 7 1 0 1 1 4 1 2 3 4 
2 0 -1 2 7 1 2 1 1 4 5 6 7 8 
3 0 -1 0 7 -1 2 1 1 4 9 10 11 12 
4 0 -1 0 0 1 2 1 1 4 13 14 15 16 
5 7 -1 0 7 1 2 1 1 4 17 18 19 20 
6 0 1 0 7 1 2 1 1 8 21 22 23 24 25 26 27 28 
7 3 1 0.5 4 1 1.5 1 3 4 25 26 27 28 
$EndEntities
$Nodes
35 1026 1 1026
0 1 0 1
1
0 -1 0
0 2 0 1
2
7 -1 0
0 3 0 1
3
7 1 0
0 4 0 1
4
0 1 0
0 5 0 1
5
0 -1 2
0 6 0 1
6
7 -1 2
0 7 0 1
7
7 1 2
0 8 0 1
8
0 1 2
0 9 0 1
9
3 1 0.5
0 10 0 1
10
4 1 0.5
0 11 0 1
11
4 1 1.5
0 12 0 1
12
3 1 1.5
1 1 0 27
13
14
15
16
17
18
19
20
21
22
23
24
25
26
27
28
29
30
31
32
33
34
35
36
37
38
39
0.2499999999999356 -1 0
0.4999999999998623 -1 0
0.7499999999997589 -1 0
0.999999999999637 -1 0
1.249999999999515 -1 0
1.499999999999393 -1 0
1.749999999999271 -1 0
1.999999999999149 -1 0
2.249999999999028 -1 0
2.499999999998907 -1 0
2.749999999998786 -1 0
2.999999999998665 -1 0
3.249999999998544 -1 0
3.49999999999851 -1 0
3.749999999999887 -1 0
4.000000000001327 -1 0
4.250000000001354 -1 0
4.500000000001231 -1 0
4.750000000001108 -1 0
5.000000000000985 -1 0
5.250000000000862 -1 0
5.500000000000739 -1 0
5.750000000000616 -1 0
6.000000000000492 -1 0
6.250000000000369 -1 0
6.500000000000246 -1 0
6.750000000000123 -1 0
1 2 0 7
40
41
42
43
44
45
46
7 -0.7500000000006933 0
7 -0.5000000000013864 0
7 -0.2500000000020802 0
7 -2.752353900348226e-12 0
7 0.2499999999979197 0
7 0.4999999999986131 0
7 0.7499999999993066 0
1 3 0 27
47
48
49
50
51
52
53
54
55
56
57
58
59
60
61
62
63
64
65
66
67
68
69
70
71
72
73
6.750000000000117 1 0
6.500000000000235 1 0
6.250000000000353 1 0
6.00000000000047 1 0
5.750000000000588 1 0
5.500000000000705 1 0
5.250000000000822 1 0
5.00000000000094 1 0
4.750000000001057 1 0
4.500000000001173 1 0
4.25000000000129 1 0
4.000000000001406 1 0
3.750000000001523 1 0
3.500000000001553 1 0
3.250000000000171 1 0
2.999999999998726 1 0
2.749999999998696 1 0
2.499999999998815 1 0
2.249999999998933 1 0
1.999999999999051 1 0
1.74999999999917 1 0
1.499999999999289 1 0
1.249999999999408 1 0
0.9999999999995266 1 0
0.7499999999996447 1 0
0.4999999999997629 1 0
0.2499999999998819 1 0
1 4 0 7
74
75
76
77
78
79
80
0 0.7500000000006933 0
0 0.5000000000013864 0
0 0.2500000000020802 0
0 2.752353900348226e-12 0
0 -0.2499999999979197 0
0 -0.4999999999986131 0
0 -0.7499999999993066 0
1 5 0 7
81
82
83
84
85
86
87
0 -0.7500000000006933 2
0 -0.5000000000013864 2
0 -0.2500000000020802 2
0 -2.752353900348226e-12 2
0 0.2499999999979197 2
0 0.4999999999986131 2
0 0.7499999999993066 2
1 6 0 27
88
89
90
91
92
93
94
95
96
97
98
99
100
101
102
103
104
105
106
107
108
109
110
111
112
113
114
0.2499999999999356 1 2
0.4999999999998623 1 2
0.7499999999997589 1 2
0.999999999999637 1 2
1.249999999999515 1 2
1.499999999999393 1 2
1.749999999999271 1 2
1.999999999999149 1 2
2.249999999999028 1 2
2.499999999998907 1 2
2.749999999998786 1 2
2.999999999998665 1 2
3.249999999998544 1 2
3.49999999999851 1 2
3.749999999999887 1 2
4.000000000001327 1 2
4.250000000001354 1 2
4.500000000001231 1 2
4.750000000001108 1 2
5.000000000000985 1 2
5.250000000000862 1 2
5.500000000000739 1 2
5.750000000000616 1 2
6.000000000000492 1 2
6.250000000000369 1 2
6.500000000000246 1 2
6.750000000000123 1 2
1 7 0 7
115
116
117
118
119
120
121
7 0.7500000000006933 2
7 0.5000000000013864 2
7 0.2500000000020802 2
7 2.752353900348226e-12 2
7 -0.2499999999979197 2
7 -0.4999999999986131 2
7 -0.7499999999993066 2
1 8 0 27
122
123
124
125
126
127
128
129
130
131
132
133
134
135
136
137
138
139
140
141
142
143
144
145
146
147
148
6.750000000000117 -1 2
6.500000000000235 -1 2
6.250000000000353 -1 2
6.00000000000047 -1 2
5.750000000000588 -1 2
5.500000000000705 -1 2
5.250000000000822 -1 2
5.00000000000094 -1 2
4.750000000001057 -1 2
4.500000000001173 -1 2
4.25000000000129 -1 2
4.000000000001406 -1 2
3.750000000001523 -1 2
3.500000000001553 -1 2
3.250000000000171 -1 2
2.999999999998726 -1 2
2.749999999998696 -1 2
2.499999999998815 -1 2
2.249999999998933 -1 2
1.999999999999051 -1 2
1.74999999999917 -1 2
1.499999999999289 -1 2
1.249999999999408 -1 2
0.9999999999995266 -1 2
0.7499999999996447 -1 2
0.4999999999997629 -1 2
0.2499999999998819 -1 2
1 9 0 7
149
150
151
152
153
154
155
0 -1 0.2499999999995475
0 -1 0.4999999999988248
0 -1 0.7499999999980957
0 -1 0.9999999999973884
0 -1 1.249999999998025
0 -1 1.499999999998683
0 -1 1.749999999999342
1 11 0 7
156
157
158
159
160
161
162
7 -1 1.749999999999002
7 -1 1.500000000000693
7 -1 1.250000000002427
7 -1 1.000000000004118
7 -1 0.7500000000031211
7 -1 0.5000000000020808
7 -1 0.2500000000010403
1 14 0 7
163
164
165
166
167
168
169
0 1 0.2499999999995475
0 1 0.4999999999988248
0 1 0.7499999999980957
0 1 0.9999999999973884
0 1 1.249999999998025
0 1 1.499999999998683
0 1 1.749999999999342
1 19 0 7
170
171
172
173
174
175
176
7 1 1.749999999999002
7 1 1.500000000000693
7 1 1.250000000002427
7 1 1.000000000004118
7 1 0.7500000000031211
7 1 0.5000000000020808
7 1 0.2500000000010403
1 25 0 3
177
178
179
3.25 1 0.5
3.5 1 0.5
3.75 1 0.5
1 26 0 3
180
181
182
4 1 0.7500000000010408
4 1 1.000000000000694
4 1 1.250000000000347
1 27 0 3
183
184
185
3.75 1 1.5
3.5 1 1.5
3.25 1 1.5
1 28 0 3
186
187
188
3 1 1.250000000001387
3 1 1.000000000002753
3 1 0.7500000000013874
2 1 0 189
189
190
191
192
193
194
195
196
197
198
199
200
201
202
203
204
205
206
207
208
209
210
211
212
213
214
215
216
217
218
219
220
221
222
223
224
225
226
227
228
229
230
231
232
233
234
235
236
237
238
239
240
241
242
243
244
245
246
247
248
249
250
251
252
253
254
255
256
257
258
259
260
261
262
263
264
265
266
267
268
269
270
271
272
273
274
275
276
277
278
279
280
281
282
283
284
285
286
287
288
289
290
291
292
293
294
295
296
297
298
299
300
301
302
303
304
305
306
307
308
309
310
311
312
313
314
315
316
317
318
319
320
321
322
323
324
325
326
327
328
329
330
331
332
333
334
335
336
337
338
339
340
341
342
343
344
345
346
347
348
349
350
351
352
353
354
355
356
357
358
359
360
361
362
363
364
365
366
367
368
369
370
371
372
373
374
375
376
377
5.75000000000063 -0.750000000000115 0
4.750000000000748 -0.7500000000000462 0
1.500005388150942 -0.7499332089952796 0
2.749999993358104 -0.7499999931128468 0
3.750000000000464 0.7500000000000395 0
1.74987415417968 0.7500022419353732 0
5.750000000000578 0.7500000000000551 0
2.499999262264018 0.7500001032464414 0
4.750000000001064 0.750000000000083 0
3.749999999999547 -0.7499999999999345 0
0.2456597953193976 0.00433768654065031 0
6.750000000000233 -0.2500000000014671 0
0.9999816111588657 -0.7496652940570816 0
0.9967994141843538 0.7493068581344535 0
6.750000000000103 0.2499999999985767 0
6.25000000000031 0.7499999999998931 0
2.999999994020241 0.7500000008807501 0
2.249999911636515 -0.7499996927834212 0
6.500000000000334 -0.7500000000003656 0
6.75000000000007 0.4999999999990435 0
0.2493433527697893 -0.4983315639901513 0
0.2439596701105003 0.7477940574641867 0
4.250000000000539 -0.7499999999999891 0
6.50000000000019 0.7499999999997297 0
0.7498942474799826 -0.7493884735588998 0
0.4997930457360507 -0.7492400156405947 0
6.750000000000182 -0.7500000000005254 0
3.499999999994949 -0.749999999999036 0
3.249999999129199 0.7500000001271885 0
0.4928152439918658 0.74742474724069 0
1.999970282162437 0.7500018165598582 0
1.248613738926414 0.7498262488225439 0
5.250000000000832 0.7500000000000897 0
4.25000000000119 0.7500000000000564 0
5.250000000000769 -0.7500000000000856 0
3.24999999986202 -0.7499999999384704 0
2.000000023144398 -0.7499966115099275 0
6.250000000000443 -0.7500000000002403 0
0.2498136652932496 -0.7494500196857771 0
6.750000000000089 0.7499999999995248 0
0.2422188653959408 0.4989450544709606 0
0.9961421671289472 0.4996326093871056 0
1.999998000365488 -0.4999899773972747 0
3.499999999955374 -0.4999999999864417 0
1.749802705105971 0.5000218712377134 0
3.249999998719469 0.5000000002207395 0
0.4912783712167825 0.4987563183268663 0
0.9999465138187703 -0.498885598222511 0
6.500000000000229 0.2499999999991406 0
4.00000000000021 -0.7499999999999576 0
6.500000000000184 0.4999999999994234 0
6.500000000000391 -0.5000000000007043 0
2.749999870795895 0.7500000185095133 0
3.4999999998107 0.750000000029746 0
6.750000000000178 -1.629550745355063e-12 0
0.2482848287837057 -0.2467495929779563 0
0.74532059197058 0.7487376686380326 0
6.000000000000537 -0.7500000000001577 0
1.250001774635089 -0.7497937655819383 0
1.499502055507498 0.7499755778386182 0
5.500000000000709 0.7500000000000779 0
5.000000000000953 0.7500000000000857 0
2.249993127268231 0.750000662324193 0
2.499999961331362 -0.7499999165719194 0
5.000000000000779 -0.7500000000000645 0
1.750001591464612 -0.7499755477971665 0
5.500000000000711 -0.7500000000000934 0
4.500000000001148 0.7500000000000691 0
6.000000000000447 0.7499999999999863 0
4.500000000000685 -0.7500000000000171 0
4.000000000001035 0.7500000000000411 0
2.999999998127894 -0.749999998604718 0
6.750000000000212 -0.5000000000010273 0
0.7496161450434637 -0.4980258134513179 0
0.4992704621835523 -0.4976711506471855 0
0.2443069742427522 0.252074950909749 0
5.750000000000643 -0.500000000000175 0
5.250000000000703 -0.5000000000001126 0
2.749999924872325 -0.4999999392095226 0
4.750000000000526 -0.5000000000000471 0
4.250000000000988 0.5000000000000947 0
5.750000000000588 0.5000000000000615 0
2.499997944366849 0.5000003783728613 0
5.000000000000954 0.5000000000001306 0
4.250000000000087 -0.499999999999954 0
0.9997250701464424 -0.2480746297720406 0
2.999999970321424 0.5000000056697158 0
0.496202959206662 0.004888527161110581 0
3.249999998905374 -0.4999999994509641 0
1.49931689135956 0.5000328391096081 0
3.749999999989759 -0.4999999999970659 0
1.999942572336322 0.5000084053454682 0
6.500000000000323 -1.001457168991504e-12 0
0.7441263685035242 0.4994842502826262 0
3.499999999735272 0.500000000045643 0
0.4982392147182543 -0.2461247212538319 0
6.250000000000313 0.4999999999997217 0
1.249992170991003 -0.4994627424110633 0
6.250000000000492 -0.5000000000004442 0
1.248259960591811 0.4999870009660791 0
5.50000000000072 0.5000000000001077 0
2.249998981172129 -0.4999974987333167 0
1.749998028870185 -0.4999414792722214 0
3.749999999954854 0.5000000000076876 0
4.500000000001058 0.5000000000001119 0
6.500000000000377 -0.2500000000009356 0
1.249880617070489 -0.249152694703919 0
1.999944784068807 0.2500188681874089 0
5.750000000000612 0.2500000000000051 0
4.500000000000865 0.2500000000001139 0
3.499999999712013 0.2500000000731852 0
1.248776086111531 0.2504390285279216 0
1.99998651450741 -0.2499770354180873 0
3.249999995440683 -0.2499999980762903 0
6.250000000000431 -5.484767103422168e-13 0
3.249999993929515 0.250000001749746 0
0.4940079879403942 0.2520546421452807 0
4.500000000000385 -0.5000000000000034 0
6.250000000000359 0.2499999999995551 0
2.74999958368417 0.5000000786042045 0
0.7477990629385111 0.003171635247836906 0
2.999999984016692 -0.4999999887602727 0
1.499991166969383 -0.4997757106086076 0
6.000000000000568 -0.5000000000002673 0
3.999999999998144 -0.4999999999994355 0
2.24998369790282 0.5000030468863669 0
5.25000000000084 0.5000000000001169 0
5.500000000000695 -0.5000000000001286 0
3.4999999992216 -0.2499999996790816 0
3.999999999994952 0.5000000000010366 0
1.499466936730584 0.2501927629085357 0
2.499999608699034 -0.4999994288116285 0
4.750000000001017 0.500000000000119 0
0.748890188031387 -0.2470495334174478 0
5.000000000000655 -0.5000000000000752 0
6.000000000000454 0.4999999999999154 0
6.250000000000481 -0.2500000000005536 0
0.745777536504636 0.2514335894278447 0
5.250000000000715 -0.2500000000000662 0
2.749999707408933 -0.2499998042254775 0
5.000000000000894 0.2500000000001052 0
2.499996850932995 0.2500009358711481 0
4.750000000000553 -0.2499999999999993 0
4.249999999999802 -0.2499999999998432 0
4.25000000000017 0.2500000000001977 0
3.749999999935801 0.2500000000145245 0
1.74996509002561 -0.2498974147622582 0
2.249994943481645 -0.2499939628224191 0
2.999999927879821 0.2500000194100088 0
3.749999999891159 -0.2499999999566963 0
1.249436941651904 0.0008454074838029175 0
2.249982569125027 0.2500055562992084 0
0.9986967608825682 0.001694977766053478 0
2.999999935867187 -0.2499999612799211 0
6.000000000000564 -0.2500000000002979 0
6.000000000000532 -2.569704160831215e-13 0
3.499999998950832 3.635770848017023e-10 0
1.499907486318896 -0.249656018258659 0
1.749793796297561 0.250073710138416 0
5.500000000000727 0.2500000000000615 0
5.750000000000644 -0.2500000000001608 0
4.750000000000894 0.2500000000001078 0
6.000000000000488 0.2499999999998174 0
0.9973971330188456 0.2508320287852367 0
5.000000000000673 -0.2500000000000284 0
3.999999999987679 0.2500000000027738 0
1.499691654503747 0.0003465258946479619 0
1.999956449109523 3.303520052870629e-05 0
2.249985228299224 9.416966685433948e-06 0
5.500000000000718 -2.110117636178188e-14 0
5.000000000000774 4.033847324027315e-14 0
4.750000000000709 5.965898351562285e-14 0
4.500000000000518 8.680804267374593e-14 0
5.750000000000629 -1.043509896547778e-13 0
4.500000000000342 -0.2499999999999536 0
3.999999999984249 -0.2499999999939415 0
2.499997849551889 -0.2499981324299484 0
5.250000000000813 0.2500000000000786 0
2.749999230752031 0.2500002338202147 0
5.500000000000696 -0.2500000000000989 0
2.749999246834746 3.710389396058755e-07 0
3.249999984184166 6.409322642924518e-09 0
3.749999999775484 7.874880356897929e-11 0
4.249999999998212 7.235831242350371e-13 0
3.999999999956882 1.483463352158765e-11 0
1.749859475659303 0.0001282195547258312 0
2.499995471581613 2.555424835445907e-06 0
5.25000000000076 9.079542673262608e-15 0
2.999999809164581 8.571339607142095e-08 0
2 2 0 189
378
379
380
381
382
383
384
385
386
387
388
389
390
391
392
393
394
395
396
397
398
399
400
401
402
403
404
405
406
407
408
409
410
411
412
413
414
415
416
417
418
419
420
421
422
423
424
425
426
427
428
429
430
431
432
433
434
435
436
437
438
439
440
441
442
443
444
445
446
447
448
449
450
451
452
453
454
455
456
457
458
459
460
461
462
463
464
465
466
467
468
469
470
471
472
473
474
475
476
477
478
479
480
481
482
483
484
485
486
487
488
489
490
491
492
493
494
495
496
497
498
499
500
501
502
503
504
505
506
507
508
509
510
511
512
513
514
515
516
517
518
519
520
521
522
523
524
525
526
527
528
529
530
531
532
533
534
535
536
537
538
539
540
541
542
543
544
545
546
547
548
549
550
551
552
553
554
555
556
557
558
559
560
561
562
563
564
565
566
5.75000000000063 0.750000000000115 2
4.750000000000748 0.7500000000000462 2
1.500005388150942 0.7499332089952796 2
2.749999993358104 0.7499999931128468 2
3.750000000000464 -0.7500000000000395 2
1.74987415417968 -0.7500022419353732 2
5.750000000000578 -0.7500000000000551 2
2.499999262264018 -0.7500001032464414 2
4.750000000001064 -0.750000000000083 2
3.749999999999547 0.7499999999999345 2
0.2456597953193976 -0.00433768654065031 2
6.750000000000233 0.2500000000014671 2
0.9999816111588657 0.7496652940570816 2
0.9967994141843538 -0.7493068581344535 2
6.750000000000103 -0.2499999999985767 2
6.25000000000031 -0.7499999999998931 2
2.999999994020241 -0.7500000008807501 2
2.249999911636515 0.7499996927834212 2
6.500000000000334 0.7500000000003656 2
6.75000000000007 -0.4999999999990435 2
0.2493433527697893 0.4983315639901513 2
0.2439596701105003 -0.7477940574641867 2
4.250000000000539 0.7499999999999891 2
6.50000000000019 -0.7499999999997297 2
0.7498942474799826 0.7493884735588998 2
0.4997930457360507 0.7492400156405947 2
6.750000000000182 0.7500000000005254 2
3.499999999994949 0.749999999999036 2
3.249999999129199 -0.7500000001271885 2
0.4928152439918658 -0.74742474724069 2
1.999970282162437 -0.7500018165598582 2
1.248613738926414 -0.7498262488225439 2
5.250000000000832 -0.7500000000000897 2
4.25000000000119 -0.7500000000000564 2
5.250000000000769 0.7500000000000856 2
3.24999999986202 0.7499999999384704 2
2.000000023144398 0.7499966115099275 2
6.250000000000443 0.7500000000002403 2
0.2498136652932496 0.7494500196857771 2
6.750000000000089 -0.7499999999995248 2
0.2422188653959408 -0.4989450544709606 2
0.9961421671289472 -0.4996326093871056 2
1.999998000365488 0.4999899773972747 2
3.499999999955374 0.4999999999864417 2
1.749802705105971 -0.5000218712377134 2
3.249999998719469 -0.5000000002207395 2
0.4912783712167825 -0.4987563183268663 2
0.9999465138187703 0.498885598222511 2
6.500000000000229 -0.2499999999991406 2
4.00000000000021 0.7499999999999576 2
6.500000000000184 -0.4999999999994234 2
6.500000000000391 0.5000000000007043 2
2.749999870795895 -0.7500000185095133 2
3.4999999998107 -0.750000000029746 2
6.750000000000178 1.629550745355063e-12 2
0.2482848287837057 0.2467495929779563 2
0.74532059197058 -0.7487376686380326 2
6.000000000000537 0.7500000000001577 2
1.250001774635089 0.7497937655819383 2
1.499502055507498 -0.7499755778386182 2
5.500000000000709 -0.7500000000000779 2
5.000000000000953 -0.7500000000000857 2
2.249993127268231 -0.750000662324193 2
2.499999961331362 0.7499999165719194 2
5.000000000000779 0.7500000000000645 2
1.750001591464612 0.7499755477971665 2
5.500000000000711 0.7500000000000934 2
4.500000000001148 -0.7500000000000691 2
6.000000000000447 -0.7499999999999863 2
4.500000000000685 0.7500000000000171 2
4.000000000001035 -0.7500000000000411 2
2.999999998127894 0.749999998604718 2
6.750000000000212 0.5000000000010273 2
0.7496161450434637 0.4980258134513179 2
0.4992704621835523 0.4976711506471855 2
0.2443069742427522 -0.252074950909749 2
5.750000000000643 0.500000000000175 2
5.250000000000703 0.5000000000001126 2
2.749999924872325 0.4999999392095226 2
4.750000000000526 0.5000000000000471 2
4.250000000000988 -0.5000000000000947 2
5.750000000000588 -0.5000000000000615 2
2.499997944366849 -0.5000003783728613 2
5.000000000000954 -0.5000000000001306 2
4.250000000000087 0.499999999999954 2
0.9997250701464424 0.2480746297720406 2
2.999999970321424 -0.5000000056697158 2
0.496202959206662 -0.004888527161110581 2
3.249999998905374 0.4999999994509641 2
1.49931689135956 -0.5000328391096081 2
3.749999999989759 0.4999999999970659 2
1.999942572336322 -0.5000084053454682 2
6.500000000000323 1.001457168991504e-12 2
0.7441263685035242 -0.4994842502826262 2
3.499999999735272 -0.500000000045643 2
0.4982392147182543 0.2461247212538319 2
6.250000000000313 -0.4999999999997217 2
1.249992170991003 0.4994627424110633 2
6.250000000000492 0.5000000000004442 2
1.248259960591811 -0.4999870009660791 2
5.50000000000072 -0.5000000000001077 2
2.249998981172129 0.4999974987333167 2
1.749998028870185 0.4999414792722214 2
3.749999999954854 -0.5000000000076876 2
4.500000000001058 -0.5000000000001119 2
6.500000000000377 0.2500000000009356 2
1.249880617070489 0.249152694703919 2
1.999944784068807 -0.2500188681874089 2
5.750000000000612 -0.2500000000000051 2
4.500000000000865 -0.2500000000001139 2
3.499999999712013 -0.2500000000731852 2
1.248776086111531 -0.2504390285279216 2
1.99998651450741 0.2499770354180873 2
3.249999995440683 0.2499999980762903 2
6.250000000000431 5.484767103422168e-13 2
3.249999993929515 -0.250000001749746 2
0.4940079879403942 -0.2520546421452807 2
4.500000000000385 0.5000000000000034 2
6.250000000000359 -0.2499999999995551 2
2.74999958368417 -0.5000000786042045 2
0.7477990629385111 -0.003171635247836906 2
2.999999984016692 0.4999999887602727 2
1.499991166969383 0.4997757106086076 2
6.000000000000568 0.5000000000002673 2
3.999999999998144 0.4999999999994355 2
2.24998369790282 -0.5000030468863669 2
5.25000000000084 -0.5000000000001169 2
5.500000000000695 0.5000000000001286 2
3.4999999992216 0.2499999996790816 2
3.999999999994952 -0.5000000000010366 2
1.499466936730584 -0.2501927629085357 2
2.499999608699034 0.4999994288116285 2
4.750000000001017 -0.500000000000119 2
0.748890188031387 0.2470495334174478 2
5.000000000000655 0.5000000000000752 2
6.000000000000454 -0.4999999999999154 2
6.250000000000481 0.2500000000005536 2
0.745777536504636 -0.2514335894278447 2
5.250000000000715 0.2500000000000662 2
2.749999707408933 0.2499998042254775 2
5.000000000000894 -0.2500000000001052 2
2.499996850932995 -0.2500009358711481 2
4.750000000000553 0.2499999999999993 2
4.249999999999802 0.2499999999998432 2
4.25000000000017 -0.2500000000001977 2
3.749999999935801 -0.2500000000145245 2
1.74996509002561 0.2498974147622582 2
2.249994943481645 0.2499939628224191 2
2.999999927879821 -0.2500000194100088 2
3.749999999891159 0.2499999999566963 2
1.249436941651904 -0.0008454074838029175 2
2.249982569125027 -0.2500055562992084 2
0.9986967608825682 -0.001694977766053478 2
2.999999935867187 0.2499999612799211 2
6.000000000000564 0.2500000000002979 2
6.000000000000532 2.569704160831215e-13 2
3.499999998950832 -3.635770848017023e-10 2
1.499907486318896 0.249656018258659 2
1.749793796297561 -0.250073710138416 2
5.500000000000727 -0.2500000000000615 2
5.750000000000644 0.2500000000001608 2
4.750000000000894 -0.2500000000001078 2
6.000000000000488 -0.2499999999998174 2
0.9973971330188456 -0.2508320287852367 2
5.000000000000673 0.2500000000000284 2
3.999999999987679 -0.2500000000027738 2
1.499691654503747 -0.0003465258946479619 2
1.999956449109523 -3.303520052870629e-05 2
2.249985228299224 -9.416966685433948e-06 2
5.500000000000718 2.110117636178188e-14 2
5.000000000000774 -4.033847324027315e-14 2
4.750000000000709 -5.965898351562285e-14 2
4.500000000000518 -8.680804267374593e-14 2
5.750000000000629 1.043509896547778e-13 2
4.500000000000342 0.2499999999999536 2
3.999999999984249 0.2499999999939415 2
2.499997849551889 0.2499981324299484 2
5.250000000000813 -0.2500000000000786 2
2.749999230752031 -0.2500002338202147 2
5.500000000000696 0.2500000000000989 2
2.749999246834746 -3.710389396058755e-07 2
3.249999984184166 -6.409322642924518e-09 2
3.749999999775484 -7.874880356897929e-11 2
4.249999999998212 -7.235831242350371e-13 2
3.999999999956882 -1.483463352158765e-11 2
1.749859475659303 -0.0001282195547258312 2
2.499995471581613 -2.555424835445907e-06 2
5.25000000000076 -9.079542673262608e-15 2
2.999999809164581 -8.571339607142095e-08 2
2 3 0 189
567
568
569
570
571
572
573
574
575
576
577
578
579
580
581
582
583
584
585
586
587
588
589
590
591
592
593
594
595
596
597
598
599
600
601
602
603
604
605
606
607
608
609
610
611
612
613
614
615
616
617
618
619
620
621
622
623
624
625
626
627
628
629
630
631
632
633
634
635
636
637
638
639
640
641
642
643
644
645
646
647
648
649
650
651
652
653
654
655
656
657
658
659
660
661
662
663
664
665
666
667
668
669
670
671
672
673
674
675
676
677
678
679
680
681
682
683
684
685
686
687
688
689
690
691
692
693
694
695
696
697
698
699
700
701
702
703
704
705
706
707
708
709
710
711
712
713
714
715
716
717
718
719
720
721
722
723
724
725
726
727
728
729
730
731
732
733
734
735
736
737
738
739
740
741
742
743
744
745
746
747
748
749
750
751
752
753
754
755
5.750000000000655 -1 1.750000000000147
4.750000000000738 -1 1.75000000000006
1.499999999999377 -1 1.750000000000114
2.749999999998833 -1 1.750000000000091
3.750000000001072 -1 0.2499999999999946
1.749999999999177 -1 0.2499999999998781
5.750000000000588 -1 0.2499999999999341
2.499999999999006 -1 0.2499999999999535
4.750000000001068 -1 0.2499999999999041
3.749999999999531 -1 1.749999999999926
0.2499999999998271 -1 0.9999999999985134
6.750000000000655 -1 1.250000000001928
0.9999999999996526 -1 1.750000000000089
0.9999999999994533 -1 0.2499999999998054
6.750000000000218 -1 0.7500000000021921
6.250000000000304 -1 0.2500000000001198
6.7500000000003 -1 1.750000000000231
2.99999999999942 -1 0.2500000000001424
2.24999999999903 -1 1.75000000000011
6.750000000000059 -1 0.5000000000014322
0.2500000000000229 -1 1.49999999999918
0.2499999999997591 -1 0.2499999999995619
6.500000000000168 -1 0.2500000000003624
4.250000000000459 -1 1.749999999999995
0.749999999999813 -1 1.750000000000005
0.4999999999999377 -1 1.749999999999837
6.500000000000481 -1 1.750000000000386
3.49999999999901 -1 1.74999999999997
3.250000000000028 -1 0.2500000000001372
0.4999999999995915 -1 0.2499999999996554
1.999999999999075 -1 0.2499999999998895
1.249999999999388 -1 0.2499999999998423
5.250000000000831 -1 0.2499999999998914
4.250000000001237 -1 0.2499999999999392
5.250000000000782 -1 1.750000000000102
3.249999999998788 -1 1.750000000000025
1.999999999999146 -1 1.750000000000111
6.250000000000574 -1 1.750000000000308
0.2499999999997007 -1 0.4999999999990777
0.2499999999999896 -1 1.749999999999598
6.75000000000007 -1 0.2500000000006937
0.99999999999942 -1 0.4999999999996551
1.999999999999144 -1 1.500000000000163
3.499999999999134 -1 1.49999999999995
1.74999999999919 -1 0.4999999999997922
3.249999999999812 -1 0.5000000000002075
0.9999999999996357 -1 1.500000000000085
0.4999999999995237 -1 0.4999999999993345
6.500000000000452 -1 0.7500000000013233
6.500000000000812 -1 1.50000000000089
6.500000000000219 -1 0.500000000000838
4.000000000000138 -1 1.749999999999952
6.750000000000506 -1 1.000000000002403
6.750000000000481 -1 1.500000000000933
2.749999999999095 -1 0.2500000000000411
3.500000000000669 -1 0.2500000000000562
0.249999999999748 -1 0.7499999999986741
0.2499999999999379 -1 1.249999999998762
0.7499999999995178 -1 0.2499999999997448
6.000000000000623 -1 1.750000000000212
1.249999999999505 -1 1.750000000000101
1.49999999999929 -1 0.2499999999998668
5.500000000000716 -1 0.2499999999999051
5.00000000000095 -1 0.249999999999895
2.249999999999011 -1 0.2499999999999117
2.499999999998924 -1 1.750000000000102
5.000000000000775 -1 1.750000000000079
1.749999999999261 -1 1.750000000000106
5.500000000000723 -1 1.750000000000116
4.500000000001169 -1 0.2499999999999229
6.000000000000454 -1 0.2500000000000131
4.500000000000624 -1 1.750000000000028
4.000000000001201 -1 0.2499999999999621
2.999999999998783 -1 1.750000000000063
0.7499999999997986 -1 1.499999999999908
0.4999999999999206 -1 1.499999999999599
5.750000000000759 -1 1.500000000000256
5.250000000000682 -1 1.500000000000127
2.499999999998955 -1 1.500000000000164
4.750000000000421 -1 1.500000000000058
4.250000000001101 -1 0.4999999999998996
5.750000000000661 -1 0.4999999999999325
5.000000000000958 -1 0.4999999999998105
2.499999999999122 -1 0.4999999999999414
4.249999999999991 -1 1.499999999999976
0.9999999999995617 -1 1.249999999999929
0.4999999999996882 -1 0.999999999999158
2.999999999999491 -1 0.5000000000001844
1.499999999999296 -1 0.4999999999997699
3.749999999999409 -1 1.499999999999894
1.999999999999102 -1 0.4999999999998236
6.500000000000824 -1 1.000000000001529
6.250000000000372 -1 0.5000000000003927
3.500000000000207 -1 0.5000000000000893
0.4999999999998224 -1 1.249999999999337
0.749999999999464 -1 0.4999999999995359
3.24999999999899 -1 1.500000000000051
6.250000000000871 -1 1.500000000000628
6.500000000000928 -1 1.25000000000132
1.249999999999486 -1 1.500000000000119
1.249999999999378 -1 0.4999999999997333
5.500000000000766 -1 0.4999999999998532
2.249999999999041 -1 1.500000000000157
1.749999999999254 -1 1.500000000000143
0.4999999999995912 -1 0.7499999999991488
3.750000000000605 -1 0.4999999999999857
2.999999999998928 -1 1.500000000000115
4.750000000001064 -1 0.4999999999998364
1.249999999999448 -1 1.25
1.999999999999124 -1 0.7499999999998408
5.750000000000801 -1 0.75000000000002
5.000000000000906 -1 0.7499999999997974
3.499999999999833 -1 0.750000000000081
1.249999999999384 -1 0.749999999999719
6.250000000000904 -1 1.000000000000861
1.999999999999142 -1 1.250000000000089
3.249999999999172 -1 1.250000000000088
3.249999999999595 -1 0.7500000000001895
6.2500000000006 -1 0.7500000000006799
4.500000000000262 -1 1.500000000000016
2.749999999999255 -1 0.5000000000000681
0.7499999999995042 -1 0.7499999999994551
0.7499999999995849 -1 0.9999999999995244
6.000000000000818 -1 1.500000000000399
1.499999999999365 -1 1.500000000000116
3.999999999999756 -1 1.499999999999921
2.249999999999057 -1 1.250000000000111
2.249999999999075 -1 0.4999999999998766
5.250000000000854 -1 0.4999999999998252
5.500000000000735 -1 1.500000000000167
3.499999999999301 -1 1.249999999999974
4.000000000000896 -1 0.4999999999999328
1.499999999999305 -1 0.7499999999997706
0.7499999999996926 -1 1.249999999999686
5.000000000000587 -1 1.500000000000079
2.749999999998923 -1 1.500000000000144
6.000000000000545 -1 0.5000000000001313
4.500000000001118 -1 0.4999999999998713
6.250000000000982 -1 1.250000000000831
4.500000000000945 -1 0.7499999999998603
6.000000000000935 -1 1.250000000000477
5.250000000000689 -1 1.250000000000035
2.499999999999134 -1 0.7499999999999911
4.75000000000045 -1 1.249999999999979
4.250000000000059 -1 1.24999999999994
4.250000000000782 -1 0.7499999999998913
3.750000000000163 -1 0.7499999999999604
1.749999999999245 -1 1.250000000000045
5.500000000000822 -1 0.7499999999998908
2.999999999999397 -1 0.7500000000001825
2.749999999999028 -1 1.250000000000163
3.749999999999512 -1 1.2499999999999
1.249999999999407 -1 0.9999999999998245
6.000000000000901 -1 1.000000000000428
1.999999999999139 -1 0.9999999999999467
0.9999999999994929 -1 0.9999999999997129
2.249999999999094 -1 0.7499999999999165
2.999999999999091 -1 1.250000000000144
3.499999999999551 -1 1.00000000000003
1.499999999999347 -1 1.25000000000001
1.749999999999213 -1 0.749999999999812
5.750000000000858 -1 1.250000000000258
5.250000000000846 -1 0.7499999999998304
2.499999999999021 -1 1.250000000000137
0.9999999999994501 -1 0.7499999999996324
4.75000000000093 -1 0.7499999999998334
6.000000000000718 -1 0.7500000000002998
4.000000000000492 -1 0.7499999999999138
5.000000000000606 -1 1.249999999999989
1.499999999999325 -1 0.99999999999987
5.750000000000866 -1 1.000000000000172
5.500000000000817 -1 1.000000000000008
5.250000000000783 -1 0.9999999999999222
2.249999999999087 -1 1.00000000000001
5.000000000000756 -1 0.9999999999998896
2.499999999999093 -1 1.000000000000075
4.750000000000695 -1 0.9999999999998945
4.500000000000577 -1 0.9999999999999081
1.749999999999231 -1 0.9999999999999127
5.500000000000774 -1 1.250000000000123
4.500000000000312 -1 1.249999999999965
3.999999999999811 -1 1.249999999999908
2.74999999999924 -1 0.7500000000000983
2.749999999999151 -1 1.000000000000131
3.249999999999386 -1 1.000000000000131
3.749999999999802 -1 0.999999999999938
4.250000000000385 -1 0.9999999999999092
4.000000000000106 -1 0.9999999999999132
2.999999999999253 -1 1.000000000000155
2 4 0 49
756
757
758
759
760
761
762
763
764
765
766
767
768
769
770
771
772
773
774
775
776
777
778
779
780
781
782
783
784
785
786
787
788
789
790
791
792
793
794
795
796
797
798
799
800
801
802
803
804
0 -0.749964710687433 0.9998976457102277
0 0.7502815815738175 0.9965700231521875
0 -0.2494503623403763 0.2481562039678568
0 0.2500093226272251 1.749661244409308
0 0.4991900743096505 0.2429129406117566
0 -0.4999992551943587 1.74995821255311
0 0.7500349438371894 1.499199259059108
0 -0.7499018743615578 0.4998801749925373
0 -0.7499997921515058 1.749988126000261
0 -0.4997448590408768 0.2495193910714663
0 0.7500061172686647 0.4956250920053439
0 0.5000106549964159 1.749646701691449
0 0.2498541136020931 0.2416521815181002
0 -0.2499966579784621 1.749845785700649
0 -0.7499981099288593 1.499965332101531
0 0.7498035388826056 0.2471372314842261
0 0.7500082596562005 1.749761295558024
0 -0.7499213628859156 0.2498910354347967
0 0.2514439983779228 0.4868309397741921
0 -0.249958713850096 1.499106710874072
0 -0.4999829912182616 1.499696804535424
0 -0.7499133257983662 0.7498302544521164
0 0.7501490091640324 1.247772603910364
0 -0.7499867906852024 1.249911723905836
0 0.7503305329784957 0.745235790015874
0 1.078503965989269e-05 1.749627935044193
0 0.2501037647838277 1.497826366027865
0 0.5000970466727676 1.498018643136691
0 -0.249130386943763 0.4966100471563498
0 -0.4996424651457682 0.4989717627800156
0 0.500560132865258 0.4900166109584591
0 0.0005624016572601246 0.2452556176029327
0 0.2516982163347182 0.7362861862083918
0 0.001165837177674567 0.4921745756381533
0 -0.4998346375459566 0.9990834375251644
0 -0.2492778423134974 0.7459424189550472
0 0.5003496490442011 1.244971175196725
0 -0.4996782455313802 0.7486248828547666
0 9.491898755923473e-05 1.49805409832522
0 -0.4999240855278877 1.249288749764604
0 0.5009031344384773 0.7400357594636969
0 0.0003700366113828153 1.2450953587993
0 0.2509761990571595 0.989896367514811
0 0.001184821106850135 0.7413909532255527
0 -0.2497818901689963 1.247631835825571
0 -0.2495234678189718 0.9962887749106825
0 0.250442197451246 1.244449011829538
0 0.5006783067897795 0.9926583133121751
0 0.0008005445734349394 0.9928958169643599
2 5 0 49
805
806
807
808
809
810
811
812
813
814
815
816
817
818
819
820
821
822
823
824
825
826
827
828
829
830
831
832
833
834
835
836
837
838
839
840
841
842
843
844
845
846
847
848
849
850
851
852
853
7 0.7500000000005322 1.000000000001879
7 -0.7500000000002328 0.9999999999985184
7 0.2500000000014924 0.2499999999996587
7 -0.250000000001529 1.750000000000288
7 -0.4999999999991367 0.2499999999997787
7 0.4999999999994699 1.75000000000014
7 -0.7500000000003176 1.499999999999217
7 0.7500000000002864 0.5000000000010186
7 0.7499999999998935 1.75000000000002
7 0.5000000000009515 0.2499999999999717
7 -0.7499999999999535 0.4999999999991858
7 -0.5000000000010159 1.750000000000003
7 -0.2499999999985831 0.2499999999997437
7 0.2499999999988023 1.750000000000258
7 0.7500000000003239 1.500000000000622
7 -0.7499999999996232 0.2499999999996371
7 -0.7500000000004878 1.749999999999656
7 0.7500000000004514 0.2500000000004842
7 0.249999999999775 1.500000000000508
7 0.5000000000002131 1.500000000000507
7 -0.2499999999993004 0.4999999999996061
7 -0.4999999999996848 0.499999999999476
7 0.7500000000003795 0.7500000000015995
7 -0.7500000000002713 1.249999999998773
7 0.7500000000004965 1.250000000001447
7 1.666560789923607e-12 0.2499999999996698
7 -0.7500000000001161 0.7499999999987407
7 -1.587729947516436e-12 1.75000000000033
7 -0.2500000000009143 1.50000000000036
7 -0.5000000000006993 1.499999999999809
7 0.2500000000009842 0.4999999999996047
7 0.5000000000007097 0.5000000000001574
7 0.5000000000008429 1.000000000000716
7 0.2500000000008244 0.7499999999999097
7 -0.5000000000004817 1.249999999999586
7 -0.2499999999997915 0.7499999999997156
7 0.5000000000007072 0.7500000000005299
7 -6.997388779517166e-13 1.500000000000534
7 1.001889543550405e-12 0.4999999999996343
7 -0.500000000000034 0.7499999999993278
7 0.5000000000006447 1.25000000000079
7 5.206338832275392e-15 1.25000000000054
7 0.2500000000007394 1.000000000000367
7 0.2500000000003705 1.250000000000566
7 5.972980356844237e-13 0.7499999999999053
7 -0.2500000000004068 1.250000000000216
7 -0.5000000000002528 0.9999999999993822
7 3.212596475735824e-13 1.000000000000258
7 -0.250000000000054 0.9999999999999432
2 6 0 164
854
855
856
857
858
859
860
861
862
863
864
865
866
867
868
869
870
871
872
873
874
875
876
877
878
879
880
881
882
883
884
885
886
887
888
889
890
891
892
893
894
895
896
897
898
899
900
901
902
903
904
905
906
907
908
909
910
911
912
913
914
915
916
917
918
919
920
921
922
923
924
925
926
927
928
929
930
931
932
933
934
935
936
937
938
939
940
941
942
943
944
945
946
947
948
949
950
951
952
953
954
955
956
957
958
959
960
961
962
963
964
965
966
967
968
969
970
971
972
973
974
975
976
977
978
979
980
981
982
983
984
985
986
987
988
989
990
991
992
993
994
995
996
997
998
999
1000
1001
1002
1003
1004
1005
1006
1007
1008
1009
1010
1011
1012
1013
1014
1015
1016
1017
5.750000000000638 1 0.2499999999998683
1.499995351596342 1 0.249995351596888
1.749999988058393 1 1.749999988059222
5.750000000000533 1 1.750000000000077
0.2497192741789515 1 0.9997192741816948
2.749999999982966 1 0.7499999999840946
6.750000000000322 1 0.7499999999985751
4.249999999999854 1 1.000000000000259
0.9997701755150454 1 0.2497701755153322
0.9999998454092839 1 1.749999845410352
4.750000000000822 1 0.2499999999999
4.750000000000756 1 1.750000000000092
2.249999999851915 1 1.749999999852744
6.750000000000077 1 1.249999999998594
2.750000000000267 1 1.250000000001114
2.24999999999921 1 0.2500000000000554
6.250000000000269 1 1.749999999999942
6.750000000000221 1 0.2499999999995683
2.499999999980916 1 1.749999999981761
6.750000000000035 1 1.499999999999096
0.2499998803380098 1 1.749999880338686
2.749999999997068 1 1.749999999997855
0.2474704401307002 1 0.4974704401320116
3.750000000000774 1 1.750000000000008
4.000000000000755 1 1.75000000000002
2.99999999999925 1 0.2500000000000373
3.499999999999465 1 0.2499999999999948
4.250000000000742 1 0.2499999999999806
3.250000000000064 1 1.750000000000003
3.749999999999974 1 0.2499999999999973
0.7488547294606982 1 0.2488547294609265
0.4975976564763222 1 0.2475976564766618
6.50000000000016 1 1.749999999999782
4.249999999999964 1 0.7500000000002368
6.500000000000383 1 0.2499999999996754
0.4999997402601711 1 1.749999740261365
4.250000000000739 1 1.750000000000042
4.250000000000236 1 1.500000000000086
5.000000000000747 1 1.75000000000011
5.250000000000796 1 0.2499999999998778
1.249999899668188 1 1.749999899669106
5.250000000000716 1 1.750000000000115
1.999999986614392 1 0.2499999866151485
6.25000000000049 1 0.2499999999997724
2.749999999999253 1 0.2500000000001256
0.2499934652111141 1 1.499993465212726
6.75000000000007 1 1.749999999999565
0.2479757541581988 1 0.247975754158849
0.9999957281704109 1 1.499995728171988
5.000000000000448 1 1.500000000000172
0.9996774014184281 1 0.4996774014188609
0.4999887152696122 1 1.499988715271632
4.499999999999802 1 1.000000000000039
1.99999996241036 1 0.4999999624109923
2.499999999910737 1 1.499999999911227
2.749999999989023 1 0.4999999999898254
6.500000000000169 1 1.249999999999151
4.500000000000279 1 1.500000000000094
6.500000000000118 1 1.499999999999478
2.999999999999296 1 1.74999999999978
6.250000000000584 1 0.4999999999995558
0.2499355587646237 1 1.24993555876706
0.2490724268410045 1 0.7490724268431754
0.7499988138550648 1 1.749998813856271
6.750000000000218 1 0.9999999999983921
2.749999999987313 1 1.499999999987881
1.249942708164495 1 0.2499427081649298
1.499999942719939 1 1.749999942720794
4.250000000000258 1 0.5000000000000822
4.500000000000786 1 0.2499999999999483
6.00000000000056 1 0.2499999999998362
3.500000000000559 1 1.750000000000001
5.000000000000821 1 0.2499999999998853
4.000000000000482 1 0.2500000000000009
5.500000000000642 1 1.750000000000102
5.500000000000718 1 0.2499999999998789
4.500000000000745 1 1.750000000000062
1.999999997014128 1 1.749999997014914
1.749998931960811 1 0.2499989319614687
3.249999999999287 1 0.2500000000000013
6.00000000000039 1 1.750000000000017
4.249999999999967 1 1.25000000000018
2.499999999998571 1 0.2499999999994846
2.749999999989559 1 0.9999999999907919
6.750000000000289 1 0.4999999999990709
0.7489435899562069 1 0.4989435899567342
0.4981976325385967 1 0.4981976325394387
5.500000000000671 1 0.499999999999811
5.750000000000466 1 1.500000000000097
1.499999182837519 1 1.499999182838466
0.9997564747999399 1 0.7497564748008535
0.4996375984781114 1 0.9996375984802808
2.499999999084602 1 0.9999999990852096
2.499999999911683 1 0.4999999999125286
5.000000000000572 1 0.4999999999998336
4.499999999999995 1 0.7499999999999996
6.0000000000006 1 0.4999999999997098
6.50000000000035 1 0.9999999999989813
0.7499895759132221 1 1.499989575915105
0.499014340784944 1 0.7490143407864723
4.750000000000334 1 1.500000000000122
6.250000000000197 1 1.499999999999775
4.499999999999948 1 1.250000000000095
0.4998984354633556 1 1.24989843546566
2.249999991578731 1 0.4999999915794571
6.500000000000478 1 0.7499999999990654
1.249908749757547 1 0.4999087497580593
4.750000000000439 1 0.4999999999998773
1.249997351346284 1 1.49999735134747
4.500000000000355 1 0.4999999999999669
2.249999998547225 1 1.499999998547642
5.500000000000562 1 1.500000000000155
5.250000000000538 1 1.500000000000174
1.749999831478131 1 1.499999831478847
1.749998051282685 1 0.4999980512832737
6.500000000000457 1 0.4999999999993377
2.499999999252142 1 1.249999999252577
1.24991917689438 1 0.7499191768951681
5.2500000000004 1 1.250000000000149
1.749997531698361 1 0.7499975316988995
0.9999666891244785 1 1.249966689126175
1.499996182468418 1 1.249996182469351
0.7499212807338851 1 1.249921280735898
2.24999997622263 1 0.749999976223176
0.7497313337953396 1 0.9997313337970549
5.000000000000281 1 0.7499999999999064
4.75000000000001 1 1.250000000000105
4.749999999999935 1 1.000000000000026
6.250000000000383 1 0.9999999999994518
6.250000000000237 1 1.249999999999587
1.499975992613918 1 0.4999759926144901
4.750000000000132 1 0.7499999999999448
1.999999965925355 1 1.499999965925857
5.75000000000063 1 0.4999999999997902
5.250000000000647 1 0.4999999999998367
2.499999995963265 1 0.7499999959640598
5.5000000000005 1 1.250000000000101
0.7493763873014865 1 0.7493763873026539
6.000000000000328 1 1.49999999999996
6.25000000000052 1 0.7499999999994396
2.249999981088087 1 1.249999981088326
1.999999839363006 1 1.249999839363352
5.500000000000588 1 0.7499999999998583
6.000000000000436 1 0.9999999999997555
1.749998778778443 1 1.249998778779069
1.249953384729511 1 0.9999533847306229
0.9998532637271573 1 0.9998532637285541
5.000000000000166 1 1.000000000000043
1.999999429226088 1 0.7499994292265566
5.250000000000396 1 1.000000000000014
2.249999919410351 1 0.9999999194107267
6.000000000000545 1 0.7499999999996785
5.750000000000447 1 1.250000000000018
1.499974736232755 1 0.7499747362334322
1.249976763551541 1 1.249976763552781
5.250000000000491 1 0.7499999999998939
5.000000000000235 1 1.250000000000123
6.000000000000347 1 1.249999999999846
1.499981971459277 1 0.999981971460091
1.749995021019809 1 0.9999950210203612
5.500000000000508 1 0.9999999999999751
1.999998987611554 1 0.9999989876119552
5.750000000000502 1 0.9999999999998945
5.75000000000057 1 0.7499999999998044
2 7 0 9
1018
1019
1020
1021
1022
1023
1024
1025
1026
3.249999999999976 1 1.000000000001088
3.75000000000001 1 0.7500000000004339
3.499999999999967 1 1.250000000000388
3.500000000000004 1 0.7500000000004152
3.749999999999994 1 1.000000000000512
3.249999999999971 1 1.250000000000749
3.749999999999989 1 1.250000000000308
3.250000000000002 1 0.7500000000007543
3.499999999999981 1 1.000000000000582
$EndNodes
$Elements
11 1040 1 1040
1 25 1 4
1 9 177 
2 177 178 
3 178 179 
4 179 10 
1 26 1 4
5 10 180 
6 180 181 
7 181 182 
8 182 11 
1 27 1 4
9 11 183 
10 183 184 
11 184 185 
12 185 12 
1 28 1 4
13 12 186 
14 186 187 
15 187 188 
16 188 9 
2 1 3 224
17 276 305 264 199 
18 199 264 76 77 
19 235 305 326 282 
20 339 300 352 341 
21 239 285 307 237 
22 355 346 335 374 
23 374 335 301 356 
24 301 336 357 356 
25 62 205 217 61 
26 26 27 198 216 
27 261 200 294 240 
28 358 368 349 362 
29 336 365 375 357 
30 353 327 376 359 
31 215 261 240 207 
32 196 271 308 241 
33 207 38 39 215 
34 362 349 343 344 
35 61 217 242 60 
36 239 237 203 208 
37 359 360 331 353 
38 325 303 344 343 
39 341 309 322 274 
40 229 210 74 75 
41 43 44 203 243 
42 284 276 199 244 
43 209 227 214 263 
44 46 3 47 228 
45 375 365 328 369 
46 80 1 13 227 
47 360 361 363 331 
48 4 74 210 73 
49 209 244 78 79 
50 229 235 218 210 
51 367 369 377 337 
52 337 377 370 304 
53 364 373 371 338 
54 302 370 377 342 
55 369 367 330 375 
56 208 203 44 45 
57 228 208 45 46 
58 227 209 79 80 
59 28 238 198 27 
60 361 372 332 363 
61 359 329 350 360 
62 282 230 202 245 
63 207 240 287 226 
64 276 284 322 309 
65 190 253 323 268 
66 354 334 371 373 
67 274 236 286 295 
68 339 355 319 300 
69 218 72 73 210 
70 269 333 298 293 
71 326 305 276 309 
72 325 343 312 287 
73 205 62 63 241 
74 226 287 312 246 
75 245 71 72 218 
76 278 248 220 288 
77 329 272 321 350 
78 372 373 364 332 
79 287 240 294 325 
80 271 330 367 308 
81 238 28 29 211 
82 202 70 71 245 
83 191 311 286 247 
84 77 78 244 199 
85 259 193 292 318 
86 334 354 318 292 
87 376 366 329 359 
88 262 213 201 236 
89 195 257 50 51 
90 220 69 70 202 
91 207 226 37 38 
92 311 291 335 346 
93 246 36 37 226 
94 322 262 236 274 
95 303 307 351 344 
96 246 312 265 189 
97 288 300 319 278 
98 350 321 293 298 
99 248 68 69 220 
100 214 213 262 263 
101 344 351 297 362 
102 241 308 275 205 
103 340 357 375 330 
104 36 246 189 35 
105 248 278 233 194 
106 236 201 247 286 
107 342 328 267 310 
108 201 16 17 247 
109 374 347 319 355 
110 211 273 313 238 
111 306 258 190 268 
112 194 67 68 248 
113 268 331 363 306 
114 355 339 295 346 
115 331 268 323 353 
116 16 201 213 15 
117 330 271 314 340 
118 300 288 230 352 
119 41 42 200 261 
120 347 233 278 319 
121 357 340 296 356 
122 311 191 254 291 
123 231 301 335 291 
124 314 280 296 340 
125 296 347 374 356 
126 358 376 327 368 
127 289 249 221 315 
128 233 280 219 194 
129 280 314 251 219 
130 347 296 280 233 
131 34 255 223 33 
132 251 314 271 196 
133 273 332 364 313 
134 269 318 354 333 
135 249 195 51 52 
136 289 270 195 249 
137 251 65 66 219 
138 223 253 32 33 
139 65 251 196 64 
140 223 255 316 266 
141 255 189 265 316 
142 217 205 275 234 
143 204 285 239 212 
144 272 315 221 250 
145 253 223 266 323 
146 308 367 337 275 
147 292 283 299 334 
148 328 342 377 369 
149 249 52 53 221 
150 250 221 53 54 
151 250 54 55 197 
152 20 21 206 225 
153 252 22 23 192 
154 22 252 206 21 
155 219 66 67 194 
156 241 63 64 196 
157 353 323 266 327 
158 244 209 263 284 
159 283 292 193 242 
160 216 198 279 232 
161 238 313 279 198 
162 243 203 237 281 
163 324 285 204 257 
164 258 306 273 211 
165 208 228 212 239 
166 224 216 232 277 
167 242 217 234 283 
168 277 310 260 224 
169 277 232 317 302 
170 304 299 283 234 
171 307 303 281 237 
172 306 363 332 273 
173 234 275 337 304 
174 310 277 302 342 
175 232 279 338 317 
176 313 364 338 279 
177 350 298 361 360 
178 334 299 345 371 
179 345 370 302 317 
180 299 304 370 345 
181 373 372 333 354 
182 298 333 372 361 
183 317 338 371 345 
184 18 19 254 191 
185 32 253 190 31 
186 291 254 225 231 
187 247 17 18 191 
188 20 225 254 19 
189 255 34 35 189 
190 318 269 222 259 
191 341 274 295 339 
192 225 206 290 231 
193 206 252 320 290 
194 362 297 348 358 
195 301 231 290 336 
196 270 289 348 297 
197 286 311 346 295 
198 290 320 365 336 
199 192 267 320 252 
200 266 316 368 327 
201 289 315 366 348 
202 59 60 242 193 
203 202 230 288 220 
204 376 358 348 366 
205 30 258 211 29 
206 316 265 349 368 
207 272 329 366 315 
208 320 267 328 365 
209 227 13 14 214 
210 312 343 349 265 
211 56 256 197 55 
212 324 257 195 270 
213 250 197 321 272 
214 31 190 258 30 
215 57 58 259 222 
216 285 324 351 307 
217 351 324 270 297 
218 257 204 49 50 
219 26 216 224 25 
220 228 47 48 212 
221 259 58 59 193 
222 56 57 222 256 
223 197 256 293 321 
224 15 213 214 14 
225 269 293 256 222 
226 284 263 262 322 
227 39 2 40 215 
228 261 215 40 41 
229 48 49 204 212 
230 24 25 224 260 
231 24 260 192 23 
232 310 267 192 260 
233 303 325 294 281 
234 42 43 243 200 
235 281 294 200 243 
236 309 341 352 326 
237 282 326 352 230 
238 245 218 235 282 
239 76 264 229 75 
240 235 229 264 305 
2 2 3 224
241 465 494 453 388 
242 388 453 83 84 
243 424 494 515 471 
244 528 489 541 530 
245 428 474 496 426 
246 544 535 524 563 
247 563 524 490 545 
248 490 525 546 545 
249 137 394 406 136 
250 101 102 387 405 
251 450 389 483 429 
252 547 557 538 551 
253 525 554 564 546 
254 542 516 565 548 
255 404 450 429 396 
256 385 460 497 430 
257 396 113 114 404 
258 551 538 532 533 
259 136 406 431 135 
260 428 426 392 397 
261 548 549 520 542 
262 514 492 533 532 
263 530 498 511 463 
264 418 399 81 82 
265 118 119 392 432 
266 473 465 388 433 
267 398 416 403 452 
268 121 6 122 417 
269 564 554 517 558 
270 87 8 88 416 
271 549 550 552 520 
272 5 81 399 148 
273 398 433 85 86 
274 418 424 407 399 
275 556 558 566 526 
276 526 566 559 493 
277 553 562 560 527 
278 491 559 566 531 
279 558 556 519 564 
280 397 392 119 120 
281 417 397 120 121 
282 416 398 86 87 
283 103 427 387 102 
284 550 561 521 552 
285 548 518 539 549 
286 471 419 391 434 
287 396 429 476 415 
288 465 473 511 498 
289 379 442 512 457 
290 543 523 560 562 
291 463 425 475 484 
292 528 544 508 489 
293 407 147 148 399 
294 458 522 487 482 
295 515 494 465 498 
296 514 532 501 476 
297 394 137 138 430 
298 415 476 501 435 
299 434 146 147 407 
300 467 437 409 477 
301 518 461 510 539 
302 561 562 553 521 
303 476 429 483 514 
304 460 519 556 497 
305 427 103 104 400 
306 391 145 146 434 
307 380 500 475 436 
308 84 85 433 388 
309 448 382 481 507 
310 523 543 507 481 
311 565 555 518 548 
312 451 402 390 425 
313 384 446 125 126 
314 409 144 145 391 
315 396 415 112 113 
316 500 480 524 535 
317 435 111 112 415 
318 511 451 425 463 
319 492 496 540 533 
320 435 501 454 378 
321 477 489 508 467 
322 539 510 482 487 
323 437 143 144 409 
324 403 402 451 452 
325 533 540 486 551 
326 430 497 464 394 
327 529 546 564 519 
328 111 435 378 110 
329 437 467 422 383 
330 425 390 436 475 
331 531 517 456 499 
332 390 91 92 436 
333 563 536 508 544 
334 400 462 502 427 
335 495 447 379 457 
336 383 142 143 437 
337 457 520 552 495 
338 544 528 484 535 
339 520 457 512 542 
340 91 390 402 90 
341 519 460 503 529 
342 489 477 419 541 
343 116 117 389 450 
344 536 422 467 508 
345 546 529 485 545 
346 500 380 443 480 
347 420 490 524 480 
348 503 469 485 529 
349 485 536 563 545 
350 547 565 516 557 
351 478 438 410 504 
352 422 469 408 383 
353 469 503 440 408 
354 536 485 469 422 
355 109 444 412 108 
356 440 503 460 385 
357 462 521 553 502 
358 458 507 543 522 
359 438 384 126 127 
360 478 459 384 438 
361 440 140 141 408 
362 412 442 107 108 
363 140 440 385 139 
364 412 444 505 455 
365 444 378 454 505 
366 406 394 464 423 
367 393 474 428 401 
368 461 504 410 439 
369 442 412 455 512 
370 497 556 526 464 
371 481 472 488 523 
372 517 531 566 558 
373 438 127 128 410 
374 439 410 128 129 
375 439 129 130 386 
376 95 96 395 414 
377 441 97 98 381 
378 97 441 395 96 
379 408 141 142 383 
380 430 138 139 385 
381 542 512 455 516 
382 433 398 452 473 
383 472 481 382 431 
384 405 387 468 421 
385 427 502 468 387 
386 432 392 426 470 
387 513 474 393 446 
388 447 495 462 400 
389 397 417 401 428 
390 413 405 421 466 
391 431 406 423 472 
392 466 499 449 413 
393 466 421 506 491 
394 493 488 472 423 
395 496 492 470 426 
396 495 552 521 462 
397 423 464 526 493 
398 499 466 491 531 
399 421 468 527 506 
400 502 553 527 468 
401 539 487 550 549 
402 523 488 534 560 
403 534 559 491 506 
404 488 493 559 534 
405 562 561 522 543 
406 487 522 561 550 
407 506 527 560 534 
408 93 94 443 380 
409 107 442 379 106 
410 480 443 414 420 
411 436 92 93 380 
412 95 414 443 94 
413 444 109 110 378 
414 507 458 411 448 
415 530 463 484 528 
416 414 395 479 420 
417 395 441 509 479 
418 551 486 537 547 
419 490 420 479 525 
420 459 478 537 486 
421 475 500 535 484 
422 479 509 554 525 
423 381 456 509 441 
424 455 505 557 516 
425 478 504 555 537 
426 134 135 431 382 
427 391 419 477 409 
428 565 547 537 555 
429 105 447 400 104 
430 505 454 538 557 
431 461 518 555 504 
432 509 456 517 554 
433 416 88 89 403 
434 501 532 538 454 
435 131 445 386 130 
436 513 446 384 459 
437 439 386 510 461 
438 106 379 447 105 
439 132 133 448 411 
440 474 513 540 496 
441 540 513 459 486 
442 446 393 124 125 
443 101 405 413 100 
444 417 122 123 401 
445 448 133 134 382 
446 131 132 411 445 
447 386 445 482 510 
448 90 402 403 89 
449 458 482 445 411 
450 473 452 451 511 
451 114 7 115 404 
452 450 404 115 116 
453 123 124 393 401 
454 99 100 413 449 
455 99 449 381 98 
456 499 456 381 449 
457 492 514 483 470 
458 117 118 432 389 
459 470 483 389 432 
460 498 530 541 515 
461 471 515 541 419 
462 434 407 424 471 
463 83 453 418 82 
464 424 418 453 494 
2 3 3 224
465 617 659 685 615 
466 652 722 689 700 
467 616 593 583 620 
468 705 681 720 707 
469 689 688 671 653 
470 616 620 578 665 
471 736 726 714 745 
472 737 738 746 728 
473 617 615 581 586 
474 738 739 708 746 
475 24 584 595 25 
476 735 708 739 741 
477 135 134 576 594 
478 586 161 162 607 
479 593 123 122 583 
480 677 737 720 733 
481 574 650 687 621 
482 719 680 731 722 
483 741 743 710 735 
484 742 709 723 740 
485 159 160 581 619 
486 25 595 622 26 
487 742 750 749 709 
488 162 2 39 607 
489 661 653 577 624 
490 593 616 664 604 
491 587 606 592 642 
492 586 581 160 161 
493 155 5 148 606 
494 705 707 690 664 
495 743 744 747 710 
496 1 149 588 13 
497 587 624 153 154 
498 716 755 751 684 
499 749 750 755 716 
500 748 754 752 718 
501 683 751 755 724 
502 604 664 690 626 
503 606 587 154 155 
504 720 737 728 707 
505 133 618 576 134 
506 662 608 580 625 
507 744 753 711 747 
508 664 616 665 705 
509 157 620 583 156 
510 156 583 122 6 
511 653 661 700 689 
512 623 577 653 671 
513 568 633 701 646 
514 706 744 743 732 
515 681 705 665 658 
516 719 736 699 680 
517 721 740 723 676 
518 734 713 752 754 
519 596 14 13 588 
520 741 678 732 743 
521 652 613 666 675 
522 593 604 124 123 
523 626 125 124 604 
524 584 24 23 621 
525 626 690 643 567 
526 625 15 14 596 
527 740 693 730 742 
528 728 643 690 707 
529 655 628 598 667 
530 647 712 706 704 
531 753 754 748 711 
532 580 16 15 625 
533 569 691 666 627 
534 618 133 132 590 
535 144 143 569 627 
536 577 623 151 152 
537 152 153 624 577 
538 691 670 714 726 
539 125 626 567 126 
540 639 571 672 698 
541 713 734 698 672 
542 641 591 579 613 
543 650 709 749 687 
544 598 17 16 580 
545 573 637 36 35 
546 732 674 704 706 
547 700 641 613 652 
548 729 695 649 678 
549 688 662 614 671 
550 667 680 699 655 
551 628 18 17 598 
552 680 667 608 731 
553 592 591 641 642 
554 728 746 696 643 
555 696 746 708 644 
556 621 687 654 584 
557 750 742 730 717 
558 628 655 611 572 
559 613 579 627 666 
560 145 579 591 146 
561 745 727 699 736 
562 579 145 144 627 
563 596 588 605 614 
564 590 651 692 618 
565 572 19 18 628 
566 686 638 568 646 
567 646 710 747 686 
568 721 676 727 745 
569 736 719 675 726 
570 727 611 655 699 
571 740 721 682 693 
572 625 596 614 662 
573 710 646 701 735 
574 685 681 658 615 
575 693 682 609 669 
576 745 714 682 721 
577 709 650 694 723 
578 737 677 715 738 
579 691 569 634 670 
580 609 682 714 670 
581 657 694 631 597 
582 611 657 597 572 
583 668 629 599 695 
584 674 649 630 575 
585 727 676 657 611 
586 127 635 601 128 
587 631 694 650 574 
588 662 688 731 608 
589 632 645 669 585 
590 741 739 729 678 
591 738 715 729 739 
592 651 711 748 692 
593 706 712 753 744 
594 629 573 35 34 
595 668 648 573 629 
596 648 668 715 677 
597 631 21 20 597 
598 601 633 129 128 
599 21 631 574 22 
600 601 635 696 644 
601 635 567 643 696 
602 595 584 654 612 
603 582 659 617 589 
604 649 695 599 630 
605 687 749 716 654 
606 672 660 679 713 
607 715 668 695 729 
608 629 34 33 599 
609 630 599 33 32 
610 633 601 644 701 
611 630 32 31 575 
612 141 140 585 603 
613 632 139 138 570 
614 597 20 19 572 
615 621 23 22 574 
616 670 634 603 609 
617 697 718 752 725 
618 624 587 642 661 
619 660 672 571 622 
620 594 576 656 610 
621 618 692 656 576 
622 619 581 615 658 
623 669 609 603 585 
624 586 607 589 617 
625 638 686 651 590 
626 610 663 602 594 
627 622 595 612 660 
628 640 602 663 673 
629 663 610 697 683 
630 684 679 660 612 
631 686 747 711 651 
632 612 654 716 684 
633 610 656 718 697 
634 692 748 718 656 
635 673 663 683 724 
636 724 717 702 673 
637 713 679 725 752 
638 725 751 683 697 
639 679 684 751 725 
640 647 698 734 712 
641 754 753 712 734 
642 717 724 755 750 
643 142 634 569 143 
644 139 632 585 140 
645 129 633 568 130 
646 703 659 582 637 
647 735 701 644 708 
648 142 141 603 634 
649 635 127 126 567 
650 698 647 600 639 
651 722 652 675 719 
652 694 657 676 723 
653 666 691 726 675 
654 689 722 731 688 
655 27 26 622 571 
656 681 685 733 720 
657 580 608 667 598 
658 131 638 590 132 
659 605 623 671 614 
660 606 148 147 592 
661 30 636 575 31 
662 649 674 732 678 
663 659 703 733 685 
664 130 568 638 131 
665 703 637 573 648 
666 575 636 704 674 
667 669 645 730 693 
668 29 28 639 600 
669 647 704 636 600 
670 135 594 602 136 
671 607 39 38 589 
672 733 703 648 677 
673 637 582 37 36 
674 639 28 27 571 
675 30 29 600 636 
676 146 591 592 147 
677 632 570 702 645 
678 661 642 641 700 
679 38 37 582 589 
680 588 149 150 605 
681 137 136 602 640 
682 137 640 570 138 
683 623 605 150 151 
684 620 157 158 578 
685 717 730 645 702 
686 673 702 570 640 
687 658 665 578 619 
688 158 159 619 578 
2 4 3 64
689 799 789 774 788 
690 789 787 768 774 
691 788 798 804 799 
692 798 802 797 804 
693 804 797 800 801 
694 798 803 792 802 
695 790 793 791 801 
696 783 792 778 762 
697 776 775 769 761 
698 800 797 794 775 
699 761 769 83 82 
700 1 80 773 149 
701 763 773 765 785 
702 155 764 81 5 
703 760 771 766 786 
704 793 790 756 777 
705 762 772 767 783 
706 763 777 151 150 
707 169 8 87 772 
708 83 769 781 84 
709 762 778 167 168 
710 761 764 770 776 
711 74 4 163 771 
712 784 785 765 758 
713 773 763 150 149 
714 775 794 781 769 
715 782 783 767 759 
716 771 760 75 74 
717 764 761 82 81 
718 768 76 75 760 
719 772 762 168 169 
720 789 799 791 784 
721 766 780 796 786 
722 756 779 153 152 
723 757 780 165 166 
724 768 760 786 774 
725 166 167 778 757 
726 152 151 777 756 
727 770 779 795 776 
728 793 785 784 791 
729 777 763 785 793 
730 778 792 803 757 
731 797 802 782 794 
732 779 756 790 795 
733 789 784 758 787 
734 78 758 765 79 
735 780 757 803 796 
736 794 782 759 781 
737 773 80 79 765 
738 85 759 767 86 
739 772 87 86 767 
740 801 800 795 790 
741 84 781 759 85 
742 758 78 77 787 
743 792 783 782 802 
744 771 163 164 766 
745 780 766 164 165 
746 775 776 795 800 
747 779 770 154 153 
748 76 768 787 77 
749 155 154 770 764 
750 801 791 799 804 
751 803 798 788 796 
752 796 788 774 786 
2 5 3 64
753 847 838 849 852 
754 852 849 840 853 
755 846 848 847 852 
756 837 841 838 847 
757 848 846 842 823 
758 834 839 828 811 
759 824 823 818 810 
760 826 825 817 809 
761 810 818 117 116 
762 852 853 850 846 
763 812 822 814 836 
764 170 813 115 7 
765 841 837 805 827 
766 809 820 815 826 
767 811 821 816 834 
768 6 121 821 156 
769 853 840 844 851 
770 176 3 46 822 
771 812 827 174 175 
772 838 841 836 835 
773 825 826 844 840 
774 42 817 830 43 
775 117 818 832 118 
776 825 843 830 817 
777 810 813 819 824 
778 811 828 158 157 
779 40 2 162 820 
780 823 842 832 818 
781 835 836 814 807 
782 822 812 175 176 
783 833 834 816 808 
784 813 810 116 115 
785 820 809 41 40 
786 817 42 41 809 
787 821 811 157 156 
788 805 829 172 173 
789 806 831 160 159 
790 843 825 840 849 
791 849 838 835 843 
792 819 829 845 824 
793 159 158 828 806 
794 173 174 827 805 
795 847 848 845 837 
796 815 831 844 826 
797 828 839 851 806 
798 827 812 836 841 
799 846 850 833 842 
800 823 824 845 848 
801 829 805 837 845 
802 850 853 851 839 
803 44 807 814 45 
804 831 806 851 844 
805 842 833 808 832 
806 807 830 843 835 
807 807 44 43 830 
808 822 46 45 814 
809 119 808 816 120 
810 821 121 120 816 
811 118 832 808 119 
812 839 834 833 850 
813 820 162 161 815 
814 831 815 161 160 
815 829 819 171 172 
816 170 171 819 813 
2 6 3 208
817 952 976 974 902 
818 909 859 989 947 
819 974 976 978 1000 
820 974 1000 999 1008 
821 944 1000 978 991 
822 901 885 940 876 
823 995 998 1013 1015 
824 1010 1001 1003 972 
825 912 955 983 910 
826 169 874 88 8 
827 979 1001 981 985 
828 954 911 956 980 
829 1001 979 1009 1003 
830 859 909 9 188 
831 989 977 958 947 
832 883 880 60 59 
833 927 883 59 58 
834 882 925 101 100 
835 978 976 957 945 
836 994 995 1015 1004 
837 1002 977 1004 1015 
838 100 99 913 882 
839 953 945 858 916 
840 925 882 185 184 
841 912 910 867 873 
842 873 171 170 900 
843 1016 1017 1005 997 
844 871 938 969 888 
845 993 982 997 1005 
846 12 913 875 919 
847 876 916 165 164 
848 945 957 915 858 
849 952 902 863 917 
850 913 12 185 882 
851 188 187 937 859 
852 173 172 867 918 
853 919 875 872 908 
854 888 48 47 871 
855 170 7 114 900 
856 901 876 164 163 
857 11 891 890 878 
858 889 917 90 89 
859 1013 998 975 1012 
860 875 913 99 98 
861 956 911 891 935 
862 1012 999 971 1007 
863 878 877 183 11 
864 999 1012 975 1008 
865 945 953 991 978 
866 1012 1007 973 1013 
867 1006 1011 992 942 
868 873 867 172 171 
869 874 889 89 88 
870 995 986 967 998 
871 938 860 959 969 
872 961 985 949 963 
873 943 921 894 962 
874 911 954 865 930 
875 1003 1009 996 1014 
876 863 91 90 917 
877 939 884 862 904 
878 855 984 960 920 
879 858 915 167 166 
880 1014 1016 1006 990 
881 914 969 959 993 
882 993 1005 950 914 
883 908 970 868 919 
884 894 92 91 863 
885 879 933 177 9 
886 986 995 994 964 
887 166 165 916 858 
888 1009 988 941 996 
889 976 952 905 957 
890 175 174 860 938 
891 933 880 178 177 
892 963 923 864 961 
893 969 914 897 888 
894 985 961 948 979 
895 70 862 884 71 
896 967 856 921 943 
897 963 949 887 922 
898 921 93 92 894 
899 944 904 960 971 
900 984 968 973 1007 
901 47 3 176 871 
902 176 175 938 871 
903 10 927 881 922 
904 946 1004 977 989 
905 936 898 909 947 
906 935 861 906 956 
907 991 939 904 944 
908 1007 971 960 984 
909 1016 1014 996 1017 
910 1015 1013 973 1002 
911 877 925 184 183 
912 908 872 866 964 
913 977 1002 907 958 
914 904 862 920 960 
915 875 98 97 872 
916 984 855 932 968 
917 890 104 103 878 
918 862 70 69 920 
919 986 931 856 967 
920 888 897 49 48 
921 857 934 111 110 
922 856 94 93 921 
923 924 50 49 897 
924 889 874 899 905 
925 968 932 896 907 
926 962 1008 975 943 
927 893 926 54 53 
928 964 866 931 986 
929 970 908 964 994 
930 979 948 988 1009 
931 891 911 930 890 
932 917 889 905 952 
933 982 983 1011 997 
934 885 884 939 940 
935 97 96 866 872 
936 968 907 1002 973 
937 893 988 948 926 
938 881 57 56 923 
939 950 987 854 924 
940 50 924 854 51 
941 988 893 929 941 
942 959 951 982 993 
943 865 954 903 892 
944 895 966 965 928 
945 961 864 926 948 
946 922 881 923 963 
947 930 865 106 105 
948 892 107 106 865 
949 923 56 55 864 
950 180 10 922 887 
951 890 930 105 104 
952 1008 962 902 974 
953 864 55 54 926 
954 895 108 107 892 
955 980 1010 903 954 
956 924 897 914 950 
957 1014 990 972 1003 
958 928 109 108 895 
959 102 101 925 877 
960 980 956 906 981 
961 893 53 52 929 
962 992 955 870 934 
963 928 857 110 109 
964 990 965 966 972 
965 870 955 912 886 
966 1011 983 955 992 
967 931 95 94 856 
968 1000 944 971 999 
969 927 10 179 883 
970 880 883 179 178 
971 918 867 910 951 
972 916 876 940 953 
973 873 900 886 912 
974 983 982 951 910 
975 920 69 68 855 
976 929 52 51 854 
977 892 903 966 895 
978 929 854 987 941 
979 965 942 857 928 
980 997 1011 1006 1016 
981 1010 972 966 903 
982 985 981 906 949 
983 981 1001 1010 980 
984 965 990 1006 942 
985 937 946 989 859 
986 941 987 1017 996 
987 943 975 998 967 
988 907 896 869 958 
989 861 887 949 906 
990 68 67 932 855 
991 57 881 927 58 
992 950 1005 1017 987 
993 9 909 898 879 
994 901 73 72 885 
995 1004 946 970 994 
996 863 902 962 894 
997 947 958 869 936 
998 931 866 96 95 
999 163 4 73 901 
1000 60 880 933 61 
1001 887 861 181 180 
1002 935 182 181 861 
1003 878 103 102 877 
1004 933 879 62 61 
1005 936 64 63 898 
1006 992 934 857 942 
1007 934 870 112 111 
1008 899 915 957 905 
1009 936 869 65 64 
1010 66 896 932 67 
1011 935 891 11 182 
1012 900 114 113 886 
1013 62 879 898 63 
1014 71 884 885 72 
1015 66 65 869 896 
1016 113 112 870 886 
1017 946 937 868 970 
1018 953 940 939 991 
1019 174 173 918 860 
1020 951 959 860 918 
1021 915 899 168 167 
1022 937 187 186 868 
1023 919 868 186 12 
1024 169 168 899 874 
2 7 3 16
1025 180 1019 179 10 
1026 1021 1019 1022 1026 
1027 188 9 177 1025 
1028 12 186 1023 185 
1029 1026 1022 1024 1020 
1030 1018 1025 1021 1026 
1031 1023 1018 1026 1020 
1032 1018 1023 186 187 
1033 187 188 1025 1018 
1034 1025 177 178 1021 
1035 1019 1021 178 179 
1036 183 1024 182 11 
1037 1024 183 184 1020 
1038 1023 1020 184 185 
1039 1024 1022 181 182 
1040 180 181 1022 1019 
$EndElements
