$MeshFormat
4.1 0 8
$EndMeshFormat
$Nodes
1 1026 1 1026
2 1 0 1026
1
2
3
4
5
6
7
8
9
10
11
12
13
14
15
16
17
18
19
20
21
22
23
24
25
26
27
28
29
30
31
32
33
34
35
36
37
38
39
40
41
42
43
44
45
46
47
48
49
50
51
52
53
54
55
56
57
58
59
60
61
62
63
64
65
66
67
68
69
70
71
72
73
74
75
76
77
78
79
80
81
82
83
84
85
86
87
88
89
90
91
92
93
94
95
96
97
98
99
100
101
102
103
104
105
106
107
108
109
110
111
112
113
114
115
116
117
118
119
120
121
122
123
124
125
126
127
128
129
130
131
132
133
134
135
136
137
138
139
140
141
142
143
144
145
146
147
148
149
150
151
152
153
154
155
156
157
158
159
160
161
162
163
164
165
166
167
168
169
170
171
172
173
174
175
176
177
178
179
180
181
182
183
184
185
186
187
188
189
190
191
192
193
194
195
196
197
198
199
200
201
202
203
204
205
206
207
208
209
210
211
212
213
214
215
216
217
218
219
220
221
222
223
224
225
226
227
228
229
230
231
232
233
234
235
236
237
238
239
240
241
242
243
244
245
246
247
248
249
250
251
252
253
254
255
256
257
258
259
260
261
262
263
264
265
266
267
268
269
270
271
272
273
274
275
276
277
278
279
280
281
282
283
284
285
286
287
288
289
290
291
292
293
294
295
296
297
298
299
300
301
302
303
304
305
306
307
308
309
310
311
312
313
314
315
316
317
318
319
320
321
322
323
324
325
326
327
328
329
330
331
332
333
334
335
336
337
338
339
340
341
342
343
344
345
346
347
348
349
350
351
352
353
354
355
356
357
358
359
360
361
362
363
364
365
366
367
368
369
370
371
372
373
374
375
376
377
378
379
380
381
382
383
384
385
386
387
388
389
390
391
392
393
394
395
396
397
398
399
400
401
402
403
404
405
406
407
408
409
410
411
412
413
414
415
416
417
418
419
420
421
422
423
424
425
426
427
428
429
430
431
432
433
434
435
436
437
438
439
440
441
442
443
444
445
446
447
448
449
450
451
452
453
454
455
456
457
458
459
460
461
462
463
464
465
466
467
468
469
470
471
472
473
474
475
476
477
478
479
480
481
482
483
484
485
486
487
488
489
490
491
492
493
494
495
496
497
498
499
500
501
502
503
504
505
506
507
508
509
510
511
512
513
514
515
516
517
518
519
520
521
522
523
524
525
526
527
528
529
530
531
532
533
534
535
536
537
538
539
540
541
542
543
544
545
546
547
548
549
550
551
552
553
554
555
556
557
558
559
560
561
562
563
564
565
566
567
568
569
570
571
572
573
574
575
576
577
578
579
580
581
582
583
584
585
586
587
588
589
590
591
592
593
594
595
596
597
598
599
600
601
602
603
604
605
606
607
608
609
610
611
612
613
614
615
616
617
618
619
620
621
622
623
624
625
626
627
628
629
630
631
632
633
634
635
636
637
638
639
640
641
642
643
644
645
646
647
648
649
650
651
652
653
654
655
656
657
658
659
660
661
662
663
664
665
666
667
668
669
670
671
672
673
674
675
676
677
678
679
680
681
682
683
684
685
686
687
688
689
690
691
692
693
694
695
696
697
698
699
700
701
702
703
704
705
706
707
708
709
710
711
712
713
714
715
716
717
718
719
720
721
722
723
724
725
726
727
728
729
730
731
732
733
734
735
736
737
738
739
740
741
742
743
744
745
746
747
748
749
750
751
752
753
754
755
756
757
758
759
760
761
762
763
764
765
766
767
768
769
770
771
772
773
774
775
776
777
778
779
780
781
782
783
784
785
786
787
788
789
790
791
792
793
794
795
796
797
798
799
800
801
802
803
804
805
806
807
808
809
810
811
812
813
814
815
816
817
818
819
820
821
822
823
824
825
826
827
828
829
830
831
832
833
834
835
836
837
838
839
840
841
842
843
844
845
846
847
848
849
850
851
852
853
854
855
856
857
858
859
860
861
862
863
864
865
866
867
868
869
870
871
872
873
874
875
876
877
878
879
880
881
882
883
884
885
886
887
888
889
890
891
892
893
894
895
896
897
898
899
900
901
902
903
904
905
906
907
908
909
910
911
912
913
914
915
916
917
918
919
920
921
922
923
924
925
926
927
928
929
930
931
932
933
934
935
936
937
938
939
940
941
942
943
944
945
946
947
948
949
950
951
952
953
954
955
956
957
958
959
960
961
962
963
964
965
966
967
968
969
970
971
972
973
974
975
976
977
978
979
980
981
982
983
984
985
986
987
988
989
990
991
992
993
994
995
996
997
998
999
1000
1001
1002
1003
1004
1005
1006
1007
1008
1009
1010
1011
1012
1013
1014
1015
1016
1017
1018
1019
1020
1021
1022
1023
1024
1025
1026
0 1 0
0 1 0.25
0.25 1 0.25
0.25 1 0
0 1 0.5
0.25 1 0.5
0 1 0.75
0.25 1 0.75
0 1 1
0.25 1 1
0 1 1.25
0.25 1 1.25
0 1 1.5
0.25 1 1.5
0 1 1.75
0.25 1 1.75
0 1 2
0.25 1 2
0.5 1 0.25
0.5 1 0
0.5 1 0.5
0.5 1 0.75
0.5 1 1
0.5 1 1.25
0.5 1 1.5
0.5 1 1.75
0.5 1 2
0.75 1 0.25
0.75 1 0
0.75 1 0.5
0.75 1 0.75
0.75 1 1
0.75 1 1.25
0.75 1 1.5
0.75 1 1.75
0.75 1 2
1 1 0.25
1 1 0
1 1 0.5
1 1 0.75
1 1 1
1 1 1.25
1 1 1.5
1 1 1.75
1 1 2
1.25 1 0.25
1.25 1 0
1.25 1 0.5
1.25 1 0.75
1.25 1 1
1.25 1 1.25
1.25 1 1.5
1.25 1 1.75
1.25 1 2
1.5 1 0.25
1.5 1 0
1.5 1 0.5
1.5 1 0.75
1.5 1 1
1.5 1 1.25
1.5 1 1.5
1.5 1 1.75
1.5 1 2
1.75 1 0.25
1.75 1 0
1.75 1 0.5
1.75 1 0.75
1.75 1 1
1.75 1 1.25
1.75 1 1.5
1.75 1 1.75
1.75 1 2
2 1 0.25
2 1 0
2 1 0.5
2 1 0.75
2 1 1
2 1 1.25
2 1 1.5
2 1 1.75
2 1 2
2.25 1 0.25
2.25 1 0
2.25 1 0.5
2.25 1 0.75
2.25 1 1
2.25 1 1.25
2.25 1 1.5
2.25 1 1.75
2.25 1 2
2.5 1 0.25
2.5 1 0
2.5 1 0.5
2.5 1 0.75
2.5 1 1
2.5 1 1.25
2.5 1 1.5
2.5 1 1.75
2.5 1 2
2.75 1 0.25
2.75 1 0
2.75 1 0.5
2.75 1 0.75
2.75 1 1
2.75 1 1.25
2.75 1 1.5
2.75 1 1.75
2.75 1 2
3 1 0.25
3 1 0
3 1 0.5
3 1 0.75
3 1 1
3 1 1.25
3 1 1.5
3 1 1.75
3 1 2
3.25 1 0.25
3.25 1 0
3.25 1 0.5
3.25 1 0.75
3.25 1 1
3.25 1 1.25
3.25 1 1.5
3.25 1 1.75
3.25 1 2
3.5 1 0.25
3.5 1 0
3.5 1 0.5
3.5 1 0.75
3.5 1 1
3.5 1 1.25
3.5 1 1.5
3.5 1 1.75
3.5 1 2
3.75 1 0.25
3.75 1 0
3.75 1 0.5
3.75 1 0.75
3.75 1 1
3.75 1 1.25
3.75 1 1.5
3.75 1 1.75
3.75 1 2
4 1 0.25
4 1 0
4 1 0.5
4 1 0.75
4 1 1
4 1 1.25
4 1 1.5
4 1 1.75
4 1 2
4.25 1 0.25
4.25 1 0
4.25 1 0.5
4.25 1 0.75
4.25 1 1
4.25 1 1.25
4.25 1 1.5
4.25 1 1.75
4.25 1 2
4.5 1 0.25
4.5 1 0
4.5 1 0.5
4.5 1 0.75
4.5 1 1
4.5 1 1.25
4.5 1 1.5
4.5 1 1.75
4.5 1 2
4.75 1 0.25
4.75 1 0
4.75 1 0.5
4.75 1 0.75
4.75 1 1
4.75 1 1.25
4.75 1 1.5
4.75 1 1.75
4.75 1 2
5 1 0.25
5 1 0
5 1 0.5
5 1 0.75
5 1 1
5 1 1.25
5 1 1.5
5 1 1.75
5 1 2
5.25 1 0.25
5.25 1 0
5.25 1 0.5
5.25 1 0.75
5.25 1 1
5.25 1 1.25
5.25 1 1.5
5.25 1 1.75
5.25 1 2
5.5 1 0.25
5.5 1 0
5.5 1 0.5
5.5 1 0.75
5.5 1 1
5.5 1 1.25
5.5 1 1.5
5.5 1 1.75
5.5 1 2
5.75 1 0.25
5.75 1 0
5.75 1 0.5
5.75 1 0.75
5.75 1 1
5.75 1 1.25
5.75 1 1.5
5.75 1 1.75
5.75 1 2
6 1 0.25
6 1 0
6 1 0.5
6 1 0.75
6 1 1
6 1 1.25
6 1 1.5
6 1 1.75
6 1 2
6.25 1 0.25
6.25 1 0
6.25 1 0.5
6.25 1 0.75
6.25 1 1
6.25 1 1.25
6.25 1 1.5
6.25 1 1.75
6.25 1 2
6.5 1 0.25
6.5 1 0
6.5 1 0.5
6.5 1 0.75
6.5 1 1
6.5 1 1.25
6.5 1 1.5
6.5 1 1.75
6.5 1 2
6.75 1 0.25
6.75 1 0
6.75 1 0.5
6.75 1 0.75
6.75 1 1
6.75 1 1.25
6.75 1 1.5
6.75 1 1.75
6.75 1 2
7 1 0.25
7 1 0
7 1 0.5
7 1 0.75
7 1 1
7 1 1.25
7 1 1.5
7 1 1.75
7 1 2
0 -1 0
0.25 -1 0
0.25 -1 0.25
0 -1 0.25
0.25 -1 0.5
0 -1 0.5
0.25 -1 0.75
0 -1 0.75
0.25 -1 1
0 -1 1
0.25 -1 1.25
0 -1 1.25
0.25 -1 1.5
0 -1 1.5
0.25 -1 1.75
0 -1 1.75
0.25 -1 2
0 -1 2
0.5 -1 0
0.5 -1 0.25
0.5 -1 0.5
0.5 -1 0.75
0.5 -1 1
0.5 -1 1.25
0.5 -1 1.5
0.5 -1 1.75
0.5 -1 2
0.75 -1 0
0.75 -1 0.25
0.75 -1 0.5
0.75 -1 0.75
0.75 -1 1
0.75 -1 1.25
0.75 -1 1.5
0.75 -1 1.75
0.75 -1 2
1 -1 0
1 -1 0.25
1 -1 0.5
1 -1 0.75
1 -1 1
1 -1 1.25
1 -1 1.5
1 -1 1.75
1 -1 2
1.25 -1 0
1.25 -1 0.25
1.25 -1 0.5
1.25 -1 0.75
1.25 -1 1
1.25 -1 1.25
1.25 -1 1.5
1.25 -1 1.75
1.25 -1 2
1.5 -1 0
1.5 -1 0.25
1.5 -1 0.5
1.5 -1 0.75
1.5 -1 1
1.5 -1 1.25
1.5 -1 1.5
1.5 -1 1.75
1.5 -1 2
1.75 -1 0
1.75 -1 0.25
1.75 -1 0.5
1.75 -1 0.75
1.75 -1 1
1.75 -1 1.25
1.75 -1 1.5
1.75 -1 1.75
1.75 -1 2
2 -1 0
2 -1 0.25
2 -1 0.5
2 -1 0.75
2 -1 1
2 -1 1.25
2 -1 1.5
2 -1 1.75
2 -1 2
2.25 -1 0
2.25 -1 0.25
2.25 -1 0.5
2.25 -1 0.75
2.25 -1 1
2.25 -1 1.25
2.25 -1 1.5
2.25 -1 1.75
2.25 -1 2
2.5 -1 0
2.5 -1 0.25
2.5 -1 0.5
2.5 -1 0.75
2.5 -1 1
2.5 -1 1.25
2.5 -1 1.5
2.5 -1 1.75
2.5 -1 2
2.75 -1 0
2.75 -1 0.25
2.75 -1 0.5
2.75 -1 0.75
2.75 -1 1
2.75 -1 1.25
2.75 -1 1.5
2.75 -1 1.75
2.75 -1 2
3 -1 0
3 -1 0.25
3 -1 0.5
3 -1 0.75
3 -1 1
3 -1 1.25
3 -1 1.5
3 -1 1.75
3 -1 2
3.25 -1 0
3.25 -1 0.25
3.25 -1 0.5
3.25 -1 0.75
3.25 -1 1
3.25 -1 1.25
3.25 -1 1.5
3.25 -1 1.75
3.25 -1 2
3.5 -1 0
3.5 -1 0.25
3.5 -1 0.5
3.5 -1 0.75
3.5 -1 1
3.5 -1 1.25
3.5 -1 1.5
3.5 -1 1.75
3.5 -1 2
3.75 -1 0
3.75 -1 0.25
3.75 -1 0.5
3.75 -1 0.75
3.75 -1 1
3.75 -1 1.25
3.75 -1 1.5
3.75 -1 1.75
3.75 -1 2
4 -1 0
4 -1 0.25
4 -1 0.5
4 -1 0.75
4 -1 1
4 -1 1.25
4 -1 1.5
4 -1 1.75
4 -1 2
4.25 -1 0
4.25 -1 0.25
4.25 -1 0.5
4.25 -1 0.75
4.25 -1 1
4.25 -1 1.25
4.25 -1 1.5
4.25 -1 1.75
4.25 -1 2
4.5 -1 0
4.5 -1 0.25
4.5 -1 0.5
4.5 -1 0.75
4.5 -1 1
4.5 -1 1.25
4.5 -1 1.5
4.5 -1 1.75
4.5 -1 2
4.75 -1 0
4.75 -1 0.25
4.75 -1 0.5
4.75 -1 0.75
4.75 -1 1
4.75 -1 1.25
4.75 -1 1.5
4.75 -1 1.75
4.75 -1 2
5 -1 0
5 -1 0.25
5 -1 0.5
5 -1 0.75
5 -1 1
5 -1 1.25
5 -1 1.5
5 -1 1.75
5 -1 2
5.25 -1 0
5.25 -1 0.25
5.25 -1 0.5
5.25 -1 0.75
5.25 -1 1
5.25 -1 1.25
5.25 -1 1.5
5.25 -1 1.75
5.25 -1 2
5.5 -1 0
5.5 -1 0.25
5.5 -1 0.5
5.5 -1 0.75
5.5 -1 1
5.5 -1 1.25
5.5 -1 1.5
5.5 -1 1.75
5.5 -1 2
5.75 -1 0
5.75 -1 0.25
5.75 -1 0.5
5.75 -1 0.75
5.75 -1 1
5.75 -1 1.25
5.75 -1 1.5
5.75 -1 1.75
5.75 -1 2
6 -1 0
6 -1 0.25
6 -1 0.5
6 -1 0.75
6 -1 1
6 -1 1.25
6 -1 1.5
6 -1 1.75
6 -1 2
6.25 -1 0
6.25 -1 0.25
6.25 -1 0.5
6.25 -1 0.75
6.25 -1 1
6.25 -1 1.25
6.25 -1 1.5
6.25 -1 1.75
6.25 -1 2
6.5 -1 0
6.5 -1 0.25
6.5 -1 0.5
6.5 -1 0.75
6.5 -1 1
6.5 -1 1.25
6.5 -1 1.5
6.5 -1 1.75
6.5 -1 2
6.75 -1 0
6.75 -1 0.25
6.75 -1 0.5
6.75 -1 0.75
6.75 -1 1
6.75 -1 1.25
6.75 -1 1.5
6.75 -1 1.75
6.75 -1 2
7 -1 0
7 -1 0.25
7 -1 0.5
7 -1 0.75
7 -1 1
7 -1 1.25
7 -1 1.5
7 -1 1.75
7 -1 2
0 -0.75 0
0.25 -0.75 0
0 -0.5 0
0.25 -0.5 0
0 -0.25 0
0.25 -0.25 0
0 0 0
0.25 0 0
0 0.25 0
0.25 0.25 0
0 0.5 0
0.25 0.5 0
0 0.75 0
0.25 0.75 0
0.5 -0.75 0
0.5 -0.5 0
0.5 -0.25 0
0.5 0 0
0.5 0.25 0
0.5 0.5 0
0.5 0.75 0
0.75 -0.75 0
0.75 -0.5 0
0.75 -0.25 0
0.75 0 0
0.75 0.25 0
0.75 0.5 0
0.75 0.75 0
1 -0.75 0
1 -0.5 0
1 -0.25 0
1 0 0
1 0.25 0
1 0.5 0
1 0.75 0
1.25 -0.75 0
1.25 -0.5 0
1.25 -0.25 0
1.25 0 0
1.25 0.25 0
1.25 0.5 0
1.25 0.75 0
1.5 -0.75 0
1.5 -0.5 0
1.5 -0.25 0
1.5 0 0
1.5 0.25 0
1.5 0.5 0
1.5 0.75 0
1.75 -0.75 0
1.75 -0.5 0
1.75 -0.25 0
1.75 0 0
1.75 0.25 0
1.75 0.5 0
1.75 0.75 0
2 -0.75 0
2 -0.5 0
2 -0.25 0
2 0 0
2 0.25 0
2 0.5 0
2 0.75 0
2.25 -0.75 0
2.25 -0.5 0
2.25 -0.25 0
2.25 0 0
2.25 0.25 0
2.25 0.5 0
2.25 0.75 0
2.5 -0.75 0
2.5 -0.5 0
2.5 -0.25 0
2.5 0 0
2.5 0.25 0
2.5 0.5 0
2.5 0.75 0
2.75 -0.75 0
2.75 -0.5 0
2.75 -0.25 0
2.75 0 0
2.75 0.25 0
2.75 0.5 0
2.75 0.75 0
3 -0.75 0
3 -0.5 0
3 -0.25 0
3 0 0
3 0.25 0
3 0.5 0
3 0.75 0
3.25 -0.75 0
3.25 -0.5 0
3.25 -0.25 0
3.25 0 0
3.25 0.25 0
3.25 0.5 0
3.25 0.75 0
3.5 -0.75 0
3.5 -0.5 0
3.5 -0.25 0
3.5 0 0
3.5 0.25 0
3.5 0.5 0
3.5 0.75 0
3.75 -0.75 0
3.75 -0.5 0
3.75 -0.25 0
3.75 0 0
3.75 0.25 0
3.75 0.5 0
3.75 0.75 0
4 -0.75 0
4 -0.5 0
4 -0.25 0
4 0 0
4 0.25 0
4 0.5 0
4 0.75 0
4.25 -0.75 0
4.25 -0.5 0
4.25 -0.25 0
4.25 0 0
4.25 0.25 0
4.25 0.5 0
4.25 0.75 0
4.5 -0.75 0
4.5 -0.5 0
4.5 -0.25 0
4.5 0 0
4.5 0.25 0
4.5 0.5 0
4.5 0.75 0
4.75 -0.75 0
4.75 -0.5 0
4.75 -0.25 0
4.75 0 0
4.75 0.25 0
4.75 0.5 0
4.75 0.75 0
5 -0.75 0
5 -0.5 0
5 -0.25 0
5 0 0
5 0.25 0
5 0.5 0
5 0.75 0
5.25 -0.75 0
5.25 -0.5 0
5.25 -0.25 0
5.25 0 0
5.25 0.25 0
5.25 0.5 0
5.25 0.75 0
5.5 -0.75 0
5.5 -0.5 0
5.5 -0.25 0
5.5 0 0
5.5 0.25 0
5.5 0.5 0
5.5 0.75 0
5.75 -0.75 0
5.75 -0.5 0
5.75 -0.25 0
5.75 0 0
5.75 0.25 0
5.75 0.5 0
5.75 0.75 0
6 -0.75 0
6 -0.5 0
6 -0.25 0
6 0 0
6 0.25 0
6 0.5 0
6 0.75 0
6.25 -0.75 0
6.25 -0.5 0
6.25 -0.25 0
6.25 0 0
6.25 0.25 0
6.25 0.5 0
6.25 0.75 0
6.5 -0.75 0
6.5 -0.5 0
6.5 -0.25 0
6.5 0 0
6.5 0.25 0
6.5 0.5 0
6.5 0.75 0
6.75 -0.75 0
6.75 -0.5 0
6.75 -0.25 0
6.75 0 0
6.75 0.25 0
6.75 0.5 0
6.75 0.75 0
7 -0.75 0
7 -0.5 0
7 -0.25 0
7 0 0
7 0.25 0
7 0.5 0
7 0.75 0
0.25 -0.75 2
0 -0.75 2
0.25 -0.5 2
0 -0.5 2
0.25 -0.25 2
0 -0.25 2
0.25 0 2
0 0 2
0.25 0.25 2
0 0.25 2
0.25 0.5 2
0 0.5 2
0.25 0.75 2
0 0.75 2
0.5 -0.75 2
0.5 -0.5 2
0.5 -0.25 2
0.5 0 2
0.5 0.25 2
0.5 0.5 2
0.5 0.75 2
0.75 -0.75 2
0.75 -0.5 2
0.75 -0.25 2
0.75 0 2
0.75 0.25 2
0.75 0.5 2
0.75 0.75 2
1 -0.75 2
1 -0.5 2
1 -0.25 2
1 0 2
1 0.25 2
1 0.5 2
1 0.75 2
1.25 -0.75 2
1.25 -0.5 2
1.25 -0.25 2
1.25 0 2
1.25 0.25 2
1.25 0.5 2
1.25 0.75 2
1.5 -0.75 2
1.5 -0.5 2
1.5 -0.25 2
1.5 0 2
1.5 0.25 2
1.5 0.5 2
1.5 0.75 2
1.75 -0.75 2
1.75 -0.5 2
1.75 -0.25 2
1.75 0 2
1.75 0.25 2
1.75 0.5 2
1.75 0.75 2
2 -0.75 2
2 -0.5 2
2 -0.25 2
2 0 2
2 0.25 2
2 0.5 2
2 0.75 2
2.25 -0.75 2
2.25 -0.5 2
2.25 -0.25 2
2.25 0 2
2.25 0.25 2
2.25 0.5 2
2.25 0.75 2
2.5 -0.75 2
2.5 -0.5 2
2.5 -0.25 2
2.5 0 2
2.5 0.25 2
2.5 0.5 2
2.5 0.75 2
2.75 -0.75 2
2.75 -0.5 2
2.75 -0.25 2
2.75 0 2
2.75 0.25 2
2.75 0.5 2
2.75 0.75 2
3 -0.75 2
3 -0.5 2
3 -0.25 2
3 0 2
3 0.25 2
3 0.5 2
3 0.75 2
3.25 -0.75 2
3.25 -0.5 2
3.25 -0.25 2
3.25 0 2
3.25 0.25 2
3.25 0.5 2
3.25 0.75 2
3.5 -0.75 2
3.5 -0.5 2
3.5 -0.25 2
3.5 0 2
3.5 0.25 2
3.5 0.5 2
3.5 0.75 2
3.75 -0.75 2
3.75 -0.5 2
3.75 -0.25 2
3.75 0 2
3.75 0.25 2
3.75 0.5 2
3.75 0.75 2
4 -0.75 2
4 -0.5 2
4 -0.25 2
4 0 2
4 0.25 2
4 0.5 2
4 0.75 2
4.25 -0.75 2
4.25 -0.5 2
4.25 -0.25 2
4.25 0 2
4.25 0.25 2
4.25 0.5 2
4.25 0.75 2
4.5 -0.75 2
4.5 -0.5 2
4.5 -0.25 2
4.5 0 2
4.5 0.25 2
4.5 0.5 2
4.5 0.75 2
4.75 -0.75 2
4.75 -0.5 2
4.75 -0.25 2
4.75 0 2
4.75 0.25 2
4.75 0.5 2
4.75 0.75 2
5 -0.75 2
5 -0.5 2
5 -0.25 2
5 0 2
5 0.25 2
5 0.5 2
5 0.75 2
5.25 -0.75 2
5.25 -0.5 2
5.25 -0.25 2
5.25 0 2
5.25 0.25 2
5.25 0.5 2
5.25 0.75 2
5.5 -0.75 2
5.5 -0.5 2
5.5 -0.25 2
5.5 0 2
5.5 0.25 2
5.5 0.5 2
5.5 0.75 2
5.75 -0.75 2
5.75 -0.5 2
5.75 -0.25 2
5.75 0 2
5.75 0.25 2
5.75 0.5 2
5.75 0.75 2
6 -0.75 2
6 -0.5 2
6 -0.25 2
6 0 2
6 0.25 2
6 0.5 2
6 0.75 2
6.25 -0.75 2
6.25 -0.5 2
6.25 -0.25 2
6.25 0 2
6.25 0.25 2
6.25 0.5 2
6.25 0.75 2
6.5 -0.75 2
6.5 -0.5 2
6.5 -0.25 2
6.5 0 2
6.5 0.25 2
6.5 0.5 2
6.5 0.75 2
6.75 -0.75 2
6.75 -0.5 2
6.75 -0.25 2
6.75 0 2
6.75 0.25 2
6.75 0.5 2
6.75 0.75 2
7 -0.75 2
7 -0.5 2
7 -0.25 2
7 0 2
7 0.25 2
7 0.5 2
7 0.75 2
0 -0.75 0.25
0 -0.75 0.5
0 -0.75 0.75
0 -0.75 1
0 -0.75 1.25
0 -0.75 1.5
0 -0.75 1.75
0 -0.5 0.25
0 -0.5 0.5
0 -0.5 0.75
0 -0.5 1
0 -0.5 1.25
0 -0.5 1.5
0 -0.5 1.75
0 -0.25 0.25
0 -0.25 0.5
0 -0.25 0.75
0 -0.25 1
0 -0.25 1.25
0 -0.25 1.5
0 -0.25 1.75
0 0 0.25
0 0 0.5
0 0 0.75
0 0 1
0 0 1.25
0 0 1.5
0 0 1.75
0 0.25 0.25
0 0.25 0.5
0 0.25 0.75
0 0.25 1
0 0.25 1.25
0 0.25 1.5
0 0.25 1.75
0 0.5 0.25
0 0.5 0.5
0 0.5 0.75
0 0.5 1
0 0.5 1.25
0 0.5 1.5
0 0.5 1.75
0 0.75 0.25
0 0.75 0.5
0 0.75 0.75
0 0.75 1
0 0.75 1.25
0 0.75 1.5
0 0.75 1.75
7 -0.75 0.25
7 -0.75 0.5
7 -0.75 0.75
7 -0.75 1
7 -0.75 1.25
7 -0.75 1.5
7 -0.75 1.75
7 -0.5 0.25
7 -0.5 0.5
7 -0.5 0.75
7 -0.5 1
7 -0.5 1.25
7 -0.5 1.5
7 -0.5 1.75
7 -0.25 0.25
7 -0.25 0.5
7 -0.25 0.75
7 -0.25 1
7 -0.25 1.25
7 -0.25 1.5
7 -0.25 1.75
7 0 0.25
7 0 0.5
7 0 0.75
7 0 1
7 0 1.25
7 0 1.5
7 0 1.75
7 0.25 0.25
7 0.25 0.5
7 0.25 0.75
7 0.25 1
7 0.25 1.25
7 0.25 1.5
7 0.25 1.75
7 0.5 0.25
7 0.5 0.5
7 0.5 0.75
7 0.5 1
7 0.5 1.25
7 0.5 1.5
7 0.5 1.75
7 0.75 0.25
7 0.75 0.5
7 0.75 0.75
7 0.75 1
7 0.75 1.25
7 0.75 1.5
7 0.75 1.75
$EndNodes
$Elements
1 1024 1 1024
2 1 3 1024
1 1 2 3 4
2 2 5 6 3
3 5 7 8 6
4 7 9 10 8
5 9 11 12 10
6 11 13 14 12
7 13 15 16 14
8 15 17 18 16
9 4 3 19 20
10 3 6 21 19
11 6 8 22 21
12 8 10 23 22
13 10 12 24 23
14 12 14 25 24
15 14 16 26 25
16 16 18 27 26
17 20 19 28 29
18 19 21 30 28
19 21 22 31 30
20 22 23 32 31
21 23 24 33 32
22 24 25 34 33
23 25 26 35 34
24 26 27 36 35
25 29 28 37 38
26 28 30 39 37
27 30 31 40 39
28 31 32 41 40
29 32 33 42 41
30 33 34 43 42
31 34 35 44 43
32 35 36 45 44
33 38 37 46 47
34 37 39 48 46
35 39 40 49 48
36 40 41 50 49
37 41 42 51 50
38 42 43 52 51
39 43 44 53 52
40 44 45 54 53
41 47 46 55 56
42 46 48 57 55
43 48 49 58 57
44 49 50 59 58
45 50 51 60 59
46 51 52 61 60
47 52 53 62 61
48 53 54 63 62
49 56 55 64 65
50 55 57 66 64
51 57 58 67 66
52 58 59 68 67
53 59 60 69 68
54 60 61 70 69
55 61 62 71 70
56 62 63 72 71
57 65 64 73 74
58 64 66 75 73
59 66 67 76 75
60 67 68 77 76
61 68 69 78 77
62 69 70 79 78
63 70 71 80 79
64 71 72 81 80
65 74 73 82 83
66 73 75 84 82
67 75 76 85 84
68 76 77 86 85
69 77 78 87 86
70 78 79 88 87
71 79 80 89 88
72 80 81 90 89
73 83 82 91 92
74 82 84 93 91
75 84 85 94 93
76 85 86 95 94
77 86 87 96 95
78 87 88 97 96
79 88 89 98 97
80 89 90 99 98
81 92 91 100 101
82 91 93 102 100
83 93 94 103 102
84 94 95 104 103
85 95 96 105 104
86 96 97 106 105
87 97 98 107 106
88 98 99 108 107
89 101 100 109 110
90 100 102 111 109
91 102 103 112 111
92 103 104 113 112
93 104 105 114 113
94 105 106 115 114
95 106 107 116 115
96 107 108 117 116
97 110 109 118 119
98 109 111 120 118
99 111 112 121 120
100 112 113 122 121
101 113 114 123 122
102 114 115 124 123
103 115 116 125 124
104 116 117 126 125
105 119 118 127 128
106 118 120 129 127
107 120 121 130 129
108 121 122 131 130
109 122 123 132 131
110 123 124 133 132
111 124 125 134 133
112 125 126 135 134
113 128 127 136 137
114 127 129 138 136
115 129 130 139 138
116 130 131 140 139
117 131 132 141 140
118 132 133 142 141
119 133 134 143 142
120 134 135 144 143
121 137 136 145 146
122 136 138 147 145
123 138 139 148 147
124 139 140 149 148
125 140 141 150 149
126 141 142 151 150
127 142 143 152 151
128 143 144 153 152
129 146 145 154 155
130 145 147 156 154
131 147 148 157 156
132 148 149 158 157
133 149 150 159 158
134 150 151 160 159
135 151 152 161 160
136 152 153 162 161
137 155 154 163 164
138 154 156 165 163
139 156 157 166 165
140 157 158 167 166
141 158 159 168 167
142 159 160 169 168
143 160 161 170 169
144 161 162 171 170
145 164 163 172 173
146 163 165 174 172
147 165 166 175 174
148 166 167 176 175
149 167 168 177 176
150 168 169 178 177
151 169 170 179 178
152 170 171 180 179
153 173 172 181 182
154 172 174 183 181
155 174 175 184 183
156 175 176 185 184
157 176 177 186 185
158 177 178 187 186
159 178 179 188 187
160 179 180 189 188
161 182 181 190 191
162 181 183 192 190
163 183 184 193 192
164 184 185 194 193
165 185 186 195 194
166 186 187 196 195
167 187 188 197 196
168 188 189 198 197
169 191 190 199 200
170 190 192 201 199
171 192 193 202 201
172 193 194 203 202
173 194 195 204 203
174 195 196 205 204
175 196 197 206 205
176 197 198 207 206
177 200 199 208 209
178 199 201 210 208
179 201 202 211 210
180 202 203 212 211
181 203 204 213 212
182 204 205 214 213
183 205 206 215 214
184 206 207 216 215
185 209 208 217 218
186 208 210 219 217
187 210 211 220 219
188 211 212 221 220
189 212 213 222 221
190 213 214 223 222
191 214 215 224 223
192 215 216 225 224
193 218 217 226 227
194 217 219 228 226
195 219 220 229 228
196 220 221 230 229
197 221 222 231 230
198 222 223 232 231
199 223 224 233 232
200 224 225 234 233
201 227 226 235 236
202 226 228 237 235
203 228 229 238 237
204 229 230 239 238
205 230 231 240 239
206 231 232 241 240
207 232 233 242 241
208 233 234 243 242
209 236 235 244 245
210 235 237 246 244
211 237 238 247 246
212 238 239 248 247
213 239 240 249 248
214 240 241 250 249
215 241 242 251 250
216 242 243 252 251
217 245 244 253 254
218 244 246 255 253
219 246 247 256 255
220 247 248 257 256
221 248 249 258 257
222 249 250 259 258
223 250 251 260 259
224 251 252 261 260
225 262 263 264 265
226 265 264 266 267
227 267 266 268 269
228 269 268 270 271
229 271 270 272 273
230 273 272 274 275
231 275 274 276 277
232 277 276 278 279
233 263 280 281 264
234 264 281 282 266
235 266 282 283 268
236 268 283 284 270
237 270 284 285 272
238 272 285 286 274
239 274 286 287 276
240 276 287 288 278
241 280 289 290 281
242 281 290 291 282
243 282 291 292 283
244 283 292 293 284
245 284 293 294 285
246 285 294 295 286
247 286 295 296 287
248 287 296 297 288
249 289 298 299 290
250 290 299 300 291
251 291 300 301 292
252 292 301 302 293
253 293 302 303 294
254 294 303 304 295
255 295 304 305 296
256 296 305 306 297
257 298 307 308 299
258 299 308 309 300
259 300 309 310 301
260 301 310 311 302
261 302 311 312 303
262 303 312 313 304
263 304 313 314 305
264 305 314 315 306
265 307 316 317 308
266 308 317 318 309
267 309 318 319 310
268 310 319 320 311
269 311 320 321 312
270 312 321 322 313
271 313 322 323 314
272 314 323 324 315
273 316 325 326 317
274 317 326 327 318
275 318 327 328 319
276 319 328 329 320
277 320 329 330 321
278 321 330 331 322
279 322 331 332 323
280 323 332 333 324
281 325 334 335 326
282 326 335 336 327
283 327 336 337 328
284 328 337 338 329
285 329 338 339 330
286 330 339 340 331
287 331 340 341 332
288 332 341 342 333
289 334 343 344 335
290 335 344 345 336
291 336 345 346 337
292 337 346 347 338
293 338 347 348 339
294 339 348 349 340
295 340 349 350 341
296 341 350 351 342
297 343 352 353 344
298 344 353 354 345
299 345 354 355 346
300 346 355 356 347
301 347 356 357 348
302 348 357 358 349
303 349 358 359 350
304 350 359 360 351
305 352 361 362 353
306 353 362 363 354
307 354 363 364 355
308 355 364 365 356
309 356 365 366 357
310 357 366 367 358
311 358 367 368 359
312 359 368 369 360
313 361 370 371 362
314 362 371 372 363
315 363 372 373 364
316 364 373 374 365
317 365 374 375 366
318 366 375 376 367
319 367 376 377 368
320 368 377 378 369
321 370 379 380 371
322 371 380 381 372
323 372 381 382 373
324 373 382 383 374
325 374 383 384 375
326 375 384 385 376
327 376 385 386 377
328 377 386 387 378
329 379 388 389 380
330 380 389 390 381
331 381 390 391 382
332 382 391 392 383
333 383 392 393 384
334 384 393 394 385
335 385 394 395 386
336 386 395 396 387
337 388 397 398 389
338 389 398 399 390
339 390 399 400 391
340 391 400 401 392
341 392 401 402 393
342 393 402 403 394
343 394 403 404 395
344 395 404 405 396
345 397 406 407 398
346 398 407 408 399
347 399 408 409 400
348 400 409 410 401
349 401 410 411 402
350 402 411 412 403
351 403 412 413 404
352 404 413 414 405
353 406 415 416 407
354 407 416 417 408
355 408 417 418 409
356 409 418 419 410
357 410 419 420 411
358 411 420 421 412
359 412 421 422 413
360 413 422 423 414
361 415 424 425 416
362 416 425 426 417
363 417 426 427 418
364 418 427 428 419
365 419 428 429 420
366 420 429 430 421
367 421 430 431 422
368 422 431 432 423
369 424 433 434 425
370 425 434 435 426
371 426 435 436 427
372 427 436 437 428
373 428 437 438 429
374 429 438 439 430
375 430 439 440 431
376 431 440 441 432
377 433 442 443 434
378 434 443 444 435
379 435 444 445 436
380 436 445 446 437
381 437 446 447 438
382 438 447 448 439
383 439 448 449 440
384 440 449 450 441
385 442 451 452 443
386 443 452 453 444
387 444 453 454 445
388 445 454 455 446
389 446 455 456 447
390 447 456 457 448
391 448 457 458 449
392 449 458 459 450
393 451 460 461 452
394 452 461 462 453
395 453 462 463 454
396 454 463 464 455
397 455 464 465 456
398 456 465 466 457
399 457 466 467 458
400 458 467 468 459
401 460 469 470 461
402 461 470 471 462
403 462 471 472 463
404 463 472 473 464
405 464 473 474 465
406 465 474 475 466
407 466 475 476 467
408 467 476 477 468
409 469 478 479 470
410 470 479 480 471
411 471 480 481 472
412 472 481 482 473
413 473 482 483 474
414 474 483 484 475
415 475 484 485 476
416 476 485 486 477
417 478 487 488 479
418 479 488 489 480
419 480 489 490 481
420 481 490 491 482
421 482 491 492 483
422 483 492 493 484
423 484 493 494 485
424 485 494 495 486
425 487 496 497 488
426 488 497 498 489
427 489 498 499 490
428 490 499 500 491
429 491 500 501 492
430 492 501 502 493
431 493 502 503 494
432 494 503 504 495
433 496 505 506 497
434 497 506 507 498
435 498 507 508 499
436 499 508 509 500
437 500 509 510 501
438 501 510 511 502
439 502 511 512 503
440 503 512 513 504
441 505 514 515 506
442 506 515 516 507
443 507 516 517 508
444 508 517 518 509
445 509 518 519 510
446 510 519 520 511
447 511 520 521 512
448 512 521 522 513
449 262 523 524 263
450 523 525 526 524
451 525 527 528 526
452 527 529 530 528
453 529 531 532 530
454 531 533 534 532
455 533 535 536 534
456 535 1 4 536
457 263 524 537 280
458 524 526 538 537
459 526 528 539 538
460 528 530 540 539
461 530 532 541 540
462 532 534 542 541
463 534 536 543 542
464 536 4 20 543
465 280 537 544 289
466 537 538 545 544
467 538 539 546 545
468 539 540 547 546
469 540 541 548 547
470 541 542 549 548
471 542 543 550 549
472 543 20 29 550
473 289 544 551 298
474 544 545 552 551
475 545 546 553 552
476 546 547 554 553
477 547 548 555 554
478 548 549 556 555
479 549 550 557 556
480 550 29 38 557
481 298 551 558 307
482 551 552 559 558
483 552 553 560 559
484 553 554 561 560
485 554 555 562 561
486 555 556 563 562
487 556 557 564 563
488 557 38 47 564
489 307 558 565 316
490 558 559 566 565
491 559 560 567 566
492 560 561 568 567
493 561 562 569 568
494 562 563 570 569
495 563 564 571 570
496 564 47 56 571
497 316 565 572 325
498 565 566 573 572
499 566 567 574 573
500 567 568 575 574
501 568 569 576 575
502 569 570 577 576
503 570 571 578 577
504 571 56 65 578
505 325 572 579 334
506 572 573 580 579
507 573 574 581 580
508 574 575 582 581
509 575 576 583 582
510 576 577 584 583
511 577 578 585 584
512 578 65 74 585
513 334 579 586 343
514 579 580 587 586
515 580 581 588 587
516 581 582 589 588
517 582 583 590 589
518 583 584 591 590
519 584 585 592 591
520 585 74 83 592
521 343 586 593 352
522 586 587 594 593
523 587 588 595 594
524 588 589 596 595
525 589 590 597 596
526 590 591 598 597
527 591 592 599 598
528 592 83 92 599
529 352 593 600 361
530 593 594 601 600
531 594 595 602 601
532 595 596 603 602
533 596 597 604 603
534 597 598 605 604
535 598 599 606 605
536 599 92 101 606
537 361 600 607 370
538 600 601 608 607
539 601 602 609 608
540 602 603 610 609
541 603 604 611 610
542 604 605 612 611
543 605 606 613 612
544 606 101 110 613
545 370 607 614 379
546 607 608 615 614
547 608 609 616 615
548 609 610 617 616
549 610 611 618 617
550 611 612 619 618
551 612 613 620 619
552 613 110 119 620
553 379 614 621 388
554 614 615 622 621
555 615 616 623 622
556 616 617 624 623
557 617 618 625 624
558 618 619 626 625
559 619 620 627 626
560 620 119 128 627
561 388 621 628 397
562 621 622 629 628
563 622 623 630 629
564 623 624 631 630
565 624 625 632 631
566 625 626 633 632
567 626 627 634 633
568 627 128 137 634
569 397 628 635 406
570 628 629 636 635
571 629 630 637 636
572 630 631 638 637
573 631 632 639 638
574 632 633 640 639
575 633 634 641 640
576 634 137 146 641
577 406 635 642 415
578 635 636 643 642
579 636 637 644 643
580 637 638 645 644
581 638 639 646 645
582 639 640 647 646
583 640 641 648 647
584 641 146 155 648
585 415 642 649 424
586 642 643 650 649
587 643 644 651 650
588 644 645 652 651
589 645 646 653 652
590 646 647 654 653
591 647 648 655 654
592 648 155 164 655
593 424 649 656 433
594 649 650 657 656
595 650 651 658 657
596 651 652 659 658
597 652 653 660 659
598 653 654 661 660
599 654 655 662 661
600 655 164 173 662
601 433 656 663 442
602 656 657 664 663
603 657 658 665 664
604 658 659 666 665
605 659 660 667 666
606 660 661 668 667
607 661 662 669 668
608 662 173 182 669
609 442 663 670 451
610 663 664 671 670
611 664 665 672 671
612 665 666 673 672
613 666 667 674 673
614 667 668 675 674
615 668 669 676 675
616 669 182 191 676
617 451 670 677 460
618 670 671 678 677
619 671 672 679 678
620 672 673 680 679
621 673 674 681 680
622 674 675 682 681
623 675 676 683 682
624 676 191 200 683
625 460 677 684 469
626 677 678 685 684
627 678 679 686 685
628 679 680 687 686
629 680 681 688 687
630 681 682 689 688
631 682 683 690 689
632 683 200 209 690
633 469 684 691 478
634 684 685 692 691
635 685 686 693 692
636 686 687 694 693
637 687 688 695 694
638 688 689 696 695
639 689 690 697 696
640 690 209 218 697
641 478 691 698 487
642 691 692 699 698
643 692 693 700 699
644 693 694 701 700
645 694 695 702 701
646 695 696 703 702
647 696 697 704 703
648 697 218 227 704
649 487 698 705 496
650 698 699 706 705
651 699 700 707 706
652 700 701 708 707
653 701 702 709 708
654 702 703 710 709
655 703 704 711 710
656 704 227 236 711
657 496 705 712 505
658 705 706 713 712
659 706 707 714 713
660 707 708 715 714
661 708 709 716 715
662 709 710 717 716
663 710 711 718 717
664 711 236 245 718
665 505 712 719 514
666 712 713 720 719
667 713 714 721 720
668 714 715 722 721
669 715 716 723 722
670 716 717 724 723
671 717 718 725 724
672 718 245 254 725
673 279 278 726 727
674 727 726 728 729
675 729 728 730 731
676 731 730 732 733
677 733 732 734 735
678 735 734 736 737
679 737 736 738 739
680 739 738 18 17
681 278 288 740 726
682 726 740 741 728
683 728 741 742 730
684 730 742 743 732
685 732 743 744 734
686 734 744 745 736
687 736 745 746 738
688 738 746 27 18
689 288 297 747 740
690 740 747 748 741
691 741 748 749 742
692 742 749 750 743
693 743 750 751 744
694 744 751 752 745
695 745 752 753 746
696 746 753 36 27
697 297 306 754 747
698 747 754 755 748
699 748 755 756 749
700 749 756 757 750
701 750 757 758 751
702 751 758 759 752
703 752 759 760 753
704 753 760 45 36
705 306 315 761 754
706 754 761 762 755
707 755 762 763 756
708 756 763 764 757
709 757 764 765 758
710 758 765 766 759
711 759 766 767 760
712 760 767 54 45
713 315 324 768 761
714 761 768 769 762
715 762 769 770 763
716 763 770 771 764
717 764 771 772 765
718 765 772 773 766
719 766 773 774 767
720 767 774 63 54
721 324 333 775 768
722 768 775 776 769
723 769 776 777 770
724 770 777 778 771
725 771 778 779 772
726 772 779 780 773
727 773 780 781 774
728 774 781 72 63
729 333 342 782 775
730 775 782 783 776
731 776 783 784 777
732 777 784 785 778
733 778 785 786 779
734 779 786 787 780
735 780 787 788 781
736 781 788 81 72
737 342 351 789 782
738 782 789 790 783
739 783 790 791 784
740 784 791 792 785
741 785 792 793 786
742 786 793 794 787
743 787 794 795 788
744 788 795 90 81
745 351 360 796 789
746 789 796 797 790
747 790 797 798 791
748 791 798 799 792
749 792 799 800 793
750 793 800 801 794
751 794 801 802 795
752 795 802 99 90
753 360 369 803 796
754 796 803 804 797
755 797 804 805 798
756 798 805 806 799
757 799 806 807 800
758 800 807 808 801
759 801 808 809 802
760 802 809 108 99
761 369 378 810 803
762 803 810 811 804
763 804 811 812 805
764 805 812 813 806
765 806 813 814 807
766 807 814 815 808
767 808 815 816 809
768 809 816 117 108
769 378 387 817 810
770 810 817 818 811
771 811 818 819 812
772 812 819 820 813
773 813 820 821 814
774 814 821 822 815
775 815 822 823 816
776 816 823 126 117
777 387 396 824 817
778 817 824 825 818
779 818 825 826 819
780 819 826 827 820
781 820 827 828 821
782 821 828 829 822
783 822 829 830 823
784 823 830 135 126
785 396 405 831 824
786 824 831 832 825
787 825 832 833 826
788 826 833 834 827
789 827 834 835 828
790 828 835 836 829
791 829 836 837 830
792 830 837 144 135
793 405 414 838 831
794 831 838 839 832
795 832 839 840 833
796 833 840 841 834
797 834 841 842 835
798 835 842 843 836
799 836 843 844 837
800 837 844 153 144
801 414 423 845 838
802 838 845 846 839
803 839 846 847 840
804 840 847 848 841
805 841 848 849 842
806 842 849 850 843
807 843 850 851 844
808 844 851 162 153
809 423 432 852 845
810 845 852 853 846
811 846 853 854 847
812 847 854 855 848
813 848 855 856 849
814 849 856 857 850
815 850 857 858 851
816 851 858 171 162
817 432 441 859 852
818 852 859 860 853
819 853 860 861 854
820 854 861 862 855
821 855 862 863 856
822 856 863 864 857
823 857 864 865 858
824 858 865 180 171
825 441 450 866 859
826 859 866 867 860
827 860 867 868 861
828 861 868 869 862
829 862 869 870 863
830 863 870 871 864
831 864 871 872 865
832 865 872 189 180
833 450 459 873 866
834 866 873 874 867
835 867 874 875 868
836 868 875 876 869
837 869 876 877 870
838 870 877 878 871
839 871 878 879 872
840 872 879 198 189
841 459 468 880 873
842 873 880 881 874
843 874 881 882 875
844 875 882 883 876
845 876 883 884 877
846 877 884 885 878
847 878 885 886 879
848 879 886 207 198
849 468 477 887 880
850 880 887 888 881
851 881 888 889 882
852 882 889 890 883
853 883 890 891 884
854 884 891 892 885
855 885 892 893 886
856 886 893 216 207
857 477 486 894 887
858 887 894 895 888
859 888 895 896 889
860 889 896 897 890
861 890 897 898 891
862 891 898 899 892
863 892 899 900 893
864 893 900 225 216
865 486 495 901 894
866 894 901 902 895
867 895 902 903 896
868 896 903 904 897
869 897 904 905 898
870 898 905 906 899
871 899 906 907 900
872 900 907 234 225
873 495 504 908 901
874 901 908 909 902
875 902 909 910 903
876 903 910 911 904
877 904 911 912 905
878 905 912 913 906
879 906 913 914 907
880 907 914 243 234
881 504 513 915 908
882 908 915 916 909
883 909 916 917 910
884 910 917 918 911
885 911 918 919 912
886 912 919 920 913
887 913 920 921 914
888 914 921 252 243
889 513 522 922 915
890 915 922 923 916
891 916 923 924 917
892 917 924 925 918
893 918 925 926 919
894 919 926 927 920
895 920 927 928 921
896 921 928 261 252
897 262 265 929 523
898 265 267 930 929
899 267 269 931 930
900 269 271 932 931
901 271 273 933 932
902 273 275 934 933
903 275 277 935 934
904 277 279 727 935
905 523 929 936 525
906 929 930 937 936
907 930 931 938 937
908 931 932 939 938
909 932 933 940 939
910 933 934 941 940
911 934 935 942 941
912 935 727 729 942
913 525 936 943 527
914 936 937 944 943
915 937 938 945 944
916 938 939 946 945
917 939 940 947 946
918 940 941 948 947
919 941 942 949 948
920 942 729 731 949
921 527 943 950 529
922 943 944 951 950
923 944 945 952 951
924 945 946 953 952
925 946 947 954 953
926 947 948 955 954
927 948 949 956 955
928 949 731 733 956
929 529 950 957 531
930 950 951 958 957
931 951 952 959 958
932 952 953 960 959
933 953 954 961 960
934 954 955 962 961
935 955 956 963 962
936 956 733 735 963
937 531 957 964 533
938 957 958 965 964
939 958 959 966 965
940 959 960 967 966
941 960 961 968 967
942 961 962 969 968
943 962 963 970 969
944 963 735 737 970
945 533 964 971 535
946 964 965 972 971
947 965 966 973 972
948 966 967 974 973
949 967 968 975 974
950 968 969 976 975
951 969 970 977 976
952 970 737 739 977
953 535 971 2 1
954 971 972 5 2
955 972 973 7 5
956 973 974 9 7
957 974 975 11 9
958 975 976 13 11
959 976 977 15 13
960 977 739 17 15
961 514 719 978 515
962 515 978 979 516
963 516 979 980 517
964 517 980 981 518
965 518 981 982 519
966 519 982 983 520
967 520 983 984 521
968 521 984 922 522
969 719 720 985 978
970 978 985 986 979
971 979 986 987 980
972 980 987 988 981
973 981 988 989 982
974 982 989 990 983
975 983 990 991 984
976 984 991 923 922
977 720 721 992 985
978 985 992 993 986
979 986 993 994 987
980 987 994 995 988
981 988 995 996 989
982 989 996 997 990
983 990 997 998 991
984 991 998 924 923
985 721 722 999 992
986 992 999 1000 993
987 993 1000 1001 994
988 994 1001 1002 995
989 995 1002 1003 996
990 996 1003 1004 997
991 997 1004 1005 998
992 998 1005 925 924
993 722 723 1006 999
994 999 1006 1007 1000
995 1000 1007 1008 1001
996 1001 1008 1009 1002
997 1002 1009 1010 1003
998 1003 1010 1011 1004
999 1004 1011 1012 1005
1000 1005 1012 926 925
1001 723 724 1013 1006
1002 1006 1013 1014 1007
1003 1007 1014 1015 1008
1004 1008 1015 1016 1009
1005 1009 1016 1017 1010
1006 1010 1017 1018 1011
1007 1011 1018 1019 1012
1008 1012 1019 927 926
1009 724 725 1020 1013
1010 1013 1020 1021 1014
1011 1014 1021 1022 1015
1012 1015 1022 1023 1016
1013 1016 1023 1024 1017
1014 1017 1024 1025 1018
1015 1018 1025 1026 1019
1016 1019 1026 928 927
1017 725 254 253 1020
1018 1020 253 255 1021
1019 1021 255 256 1022
1020 1022 256 257 1023
1021 1023 257 258 1024
1022 1024 258 259 1025
1023 1025 259 260 1026
1024 1026 260 261 928
$EndElements
