$MeshFormat
4.1 0 8
$EndMeshFormat
$Nodes
1 1017 1 1017
2 1 0 1017
1
2
3
4
5
6
7
8
9
10
11
12
13
14
15
16
17
18
19
20
21
22
23
24
25
26
27
28
29
30
31
32
33
34
35
36
37
38
39
40
41
42
43
44
45
46
47
48
49
50
51
52
53
54
55
56
57
58
59
60
61
62
63
64
65
66
67
68
69
70
71
72
73
74
75
76
77
78
79
80
81
82
83
84
85
86
87
88
89
90
91
92
93
94
95
96
97
98
99
100
101
102
103
104
105
106
107
108
109
110
111
112
113
114
115
116
117
118
119
120
121
122
123
124
125
126
127
128
129
130
131
132
133
134
135
136
137
138
139
140
141
142
143
144
145
146
147
148
149
150
151
152
153
154
155
156
157
158
159
160
161
162
163
164
165
166
167
168
169
170
171
172
173
174
175
176
177
178
179
180
181
182
183
184
185
186
187
188
189
190
191
192
193
194
195
196
197
198
199
200
201
202
203
204
205
206
207
208
209
210
211
212
213
214
215
216
217
218
219
220
221
222
223
224
225
226
227
228
229
230
231
232
233
234
235
236
237
238
239
240
241
242
243
244
245
246
247
248
249
250
251
252
253
254
255
256
257
258
259
260
261
262
263
264
265
266
267
268
269
270
271
272
273
274
275
276
277
278
279
280
281
282
283
284
285
286
287
288
289
290
291
292
293
294
295
296
297
298
299
300
301
302
303
304
305
306
307
308
309
310
311
312
313
314
315
316
317
318
319
320
321
322
323
324
325
326
327
328
329
330
331
332
333
334
335
336
337
338
339
340
341
342
343
344
345
346
347
348
349
350
351
352
353
354
355
356
357
358
359
360
361
362
363
364
365
366
367
368
369
370
371
372
373
374
375
376
377
378
379
380
381
382
383
384
385
386
387
388
389
390
391
392
393
394
395
396
397
398
399
400
401
402
403
404
405
406
407
408
409
410
411
412
413
414
415
416
417
418
419
420
421
422
423
424
425
426
427
428
429
430
431
432
433
434
435
436
437
438
439
440
441
442
443
444
445
446
447
448
449
450
451
452
453
454
455
456
457
458
459
460
461
462
463
464
465
466
467
468
469
470
471
472
473
474
475
476
477
478
479
480
481
482
483
484
485
486
487
488
489
490
491
492
493
494
495
496
497
498
499
500
501
502
503
504
505
506
507
508
509
510
511
512
513
514
515
516
517
518
519
520
521
522
523
524
525
526
527
528
529
530
531
532
533
534
535
536
537
538
539
540
541
542
543
544
545
546
547
548
549
550
551
552
553
554
555
556
557
558
559
560
561
562
563
564
565
566
567
568
569
570
571
572
573
574
575
576
577
578
579
580
581
582
583
584
585
586
587
588
589
590
591
592
593
594
595
596
597
598
599
600
601
602
603
604
605
606
607
608
609
610
611
612
613
614
615
616
617
618
619
620
621
622
623
624
625
626
627
628
629
630
631
632
633
634
635
636
637
638
639
640
641
642
643
644
645
646
647
648
649
650
651
652
653
654
655
656
657
658
659
660
661
662
663
664
665
666
667
668
669
670
671
672
673
674
675
676
677
678
679
680
681
682
683
684
685
686
687
688
689
690
691
692
693
694
695
696
697
698
699
700
701
702
703
704
705
706
707
708
709
710
711
712
713
714
715
716
717
718
719
720
721
722
723
724
725
726
727
728
729
730
731
732
733
734
735
736
737
738
739
740
741
742
743
744
745
746
747
748
749
750
751
752
753
754
755
756
757
758
759
760
761
762
763
764
765
766
767
768
769
770
771
772
773
774
775
776
777
778
779
780
781
782
783
784
785
786
787
788
789
790
791
792
793
794
795
796
797
798
799
800
801
802
803
804
805
806
807
808
809
810
811
812
813
814
815
816
817
818
819
820
821
822
823
824
825
826
827
828
829
830
831
832
833
834
835
836
837
838
839
840
841
842
843
844
845
846
847
848
849
850
851
852
853
854
855
856
857
858
859
860
861
862
863
864
865
866
867
868
869
870
871
872
873
874
875
876
877
878
879
880
881
882
883
884
885
886
887
888
889
890
891
892
893
894
895
896
897
898
899
900
901
902
903
904
905
906
907
908
909
910
911
912
913
914
915
916
917
918
919
920
921
922
923
924
925
926
927
928
929
930
931
932
933
934
935
936
937
938
939
940
941
942
943
944
945
946
947
948
949
950
951
952
953
954
955
956
957
958
959
960
961
962
963
964
965
966
967
968
969
970
971
972
973
974
975
976
977
978
979
980
981
982
983
984
985
986
987
988
989
990
991
992
993
994
995
996
997
998
999
1000
1001
1002
1003
1004
1005
1006
1007
1008
1009
1010
1011
1012
1013
1014
1015
1016
1017
0 1 0
0 1 0.25
0.25 1 0.25
0.25 1 0
0 1 0.5
0.25 1 0.5
0 1 0.75
0.25 1 0.75
0 1 1
0.25 1 1
0 1 1.25
0.25 1 1.25
0 1 1.5
0.25 1 1.5
0 1 1.75
0.25 1 1.75
0 1 2
0.25 1 2
0.5 1 0.25
0.5 1 0
0.5 1 0.5
0.5 1 0.75
0.5 1 1
0.5 1 1.25
0.5 1 1.5
0.5 1 1.75
0.5 1 2
0.75 1 0.25
0.75 1 0
0.75 1 0.5
0.75 1 0.75
0.75 1 1
0.75 1 1.25
0.75 1 1.5
0.75 1 1.75
0.75 1 2
1 1 0.25
1 1 0
1 1 0.5
1 1 0.75
1 1 1
1 1 1.25
1 1 1.5
1 1 1.75
1 1 2
1.25 1 0.25
1.25 1 0
1.25 1 0.5
1.25 1 0.75
1.25 1 1
1.25 1 1.25
1.25 1 1.5
1.25 1 1.75
1.25 1 2
1.5 1 0.25
1.5 1 0
1.5 1 0.5
1.5 1 0.75
1.5 1 1
1.5 1 1.25
1.5 1 1.5
1.5 1 1.75
1.5 1 2
1.75 1 0.25
1.75 1 0
1.75 1 0.5
1.75 1 0.75
1.75 1 1
1.75 1 1.25
1.75 1 1.5
1.75 1 1.75
1.75 1 2
2 1 0.25
2 1 0
2 1 0.5
2 1 0.75
2 1 1
2 1 1.25
2 1 1.5
2 1 1.75
2 1 2
2.25 1 0.25
2.25 1 0
2.25 1 0.5
2.25 1 0.75
2.25 1 1
2.25 1 1.25
2.25 1 1.5
2.25 1 1.75
2.25 1 2
2.5 1 0.25
2.5 1 0
2.5 1 0.5
2.5 1 0.75
2.5 1 1
2.5 1 1.25
2.5 1 1.5
2.5 1 1.75
2.5 1 2
2.75 1 0.25
2.75 1 0
2.75 1 0.5
2.75 1 0.75
2.75 1 1
2.75 1 1.25
2.75 1 1.5
2.75 1 1.75
2.75 1 2
3 1 0.25
3 1 0
3 1 0.5
3 1 0.75
3 1 1
3 1 1.25
3 1 1.5
3 1 1.75
3 1 2
3.25 1 0.25
3.25 1 0
3.25 1 0.5
3.25 1 1.75
3.25 1 1.5
3.25 1 2
3.5 1 0.25
3.5 1 0
3.5 1 0.5
3.5 1 1.75
3.5 1 1.5
3.5 1 2
3.75 1 0.25
3.75 1 0
3.75 1 0.5
3.75 1 1.75
3.75 1 1.5
3.75 1 2
4 1 0.25
4 1 0
4 1 0.5
4 1 1.75
4 1 1.5
4 1 2
4.25 1 0.25
4.25 1 0
4.25 1 0.5
4 1 0.75
4.25 1 0.75
4 1 1
4.25 1 1
4 1 1.25
4.25 1 1.25
4.25 1 1.5
4.25 1 1.75
4.25 1 2
4.5 1 0.25
4.5 1 0
4.5 1 0.5
4.5 1 0.75
4.5 1 1
4.5 1 1.25
4.5 1 1.5
4.5 1 1.75
4.5 1 2
4.75 1 0.25
4.75 1 0
4.75 1 0.5
4.75 1 0.75
4.75 1 1
4.75 1 1.25
4.75 1 1.5
4.75 1 1.75
4.75 1 2
5 1 0.25
5 1 0
5 1 0.5
5 1 0.75
5 1 1
5 1 1.25
5 1 1.5
5 1 1.75
5 1 2
5.25 1 0.25
5.25 1 0
5.25 1 0.5
5.25 1 0.75
5.25 1 1
5.25 1 1.25
5.25 1 1.5
5.25 1 1.75
5.25 1 2
5.5 1 0.25
5.5 1 0
5.5 1 0.5
5.5 1 0.75
5.5 1 1
5.5 1 1.25
5.5 1 1.5
5.5 1 1.75
5.5 1 2
5.75 1 0.25
5.75 1 0
5.75 1 0.5
5.75 1 0.75
5.75 1 1
5.75 1 1.25
5.75 1 1.5
5.75 1 1.75
5.75 1 2
6 1 0.25
6 1 0
6 1 0.5
6 1 0.75
6 1 1
6 1 1.25
6 1 1.5
6 1 1.75
6 1 2
6.25 1 0.25
6.25 1 0
6.25 1 0.5
6.25 1 0.75
6.25 1 1
6.25 1 1.25
6.25 1 1.5
6.25 1 1.75
6.25 1 2
6.5 1 0.25
6.5 1 0
6.5 1 0.5
6.5 1 0.75
6.5 1 1
6.5 1 1.25
6.5 1 1.5
6.5 1 1.75
6.5 1 2
6.75 1 0.25
6.75 1 0
6.75 1 0.5
6.75 1 0.75
6.75 1 1
6.75 1 1.25
6.75 1 1.5
6.75 1 1.75
6.75 1 2
7 1 0.25
7 1 0
7 1 0.5
7 1 0.75
7 1 1
7 1 1.25
7 1 1.5
7 1 1.75
7 1 2
0 -1 0
0.25 -1 0
0.25 -1 0.25
0 -1 0.25
0.25 -1 0.5
0 -1 0.5
0.25 -1 0.75
0 -1 0.75
0.25 -1 1
0 -1 1
0.25 -1 1.25
0 -1 1.25
0.25 -1 1.5
0 -1 1.5
0.25 -1 1.75
0 -1 1.75
0.25 -1 2
0 -1 2
0.5 -1 0
0.5 -1 0.25
0.5 -1 0.5
0.5 -1 0.75
0.5 -1 1
0.5 -1 1.25
0.5 -1 1.5
0.5 -1 1.75
0.5 -1 2
0.75 -1 0
0.75 -1 0.25
0.75 -1 0.5
0.75 -1 0.75
0.75 -1 1
0.75 -1 1.25
0.75 -1 1.5
0.75 -1 1.75
0.75 -1 2
1 -1 0
1 -1 0.25
1 -1 0.5
1 -1 0.75
1 -1 1
1 -1 1.25
1 -1 1.5
1 -1 1.75
1 -1 2
1.25 -1 0
1.25 -1 0.25
1.25 -1 0.5
1.25 -1 0.75
1.25 -1 1
1.25 -1 1.25
1.25 -1 1.5
1.25 -1 1.75
1.25 -1 2
1.5 -1 0
1.5 -1 0.25
1.5 -1 0.5
1.5 -1 0.75
1.5 -1 1
1.5 -1 1.25
1.5 -1 1.5
1.5 -1 1.75
1.5 -1 2
1.75 -1 0
1.75 -1 0.25
1.75 -1 0.5
1.75 -1 0.75
1.75 -1 1
1.75 -1 1.25
1.75 -1 1.5
1.75 -1 1.75
1.75 -1 2
2 -1 0
2 -1 0.25
2 -1 0.5
2 -1 0.75
2 -1 1
2 -1 1.25
2 -1 1.5
2 -1 1.75
2 -1 2
2.25 -1 0
2.25 -1 0.25
2.25 -1 0.5
2.25 -1 0.75
2.25 -1 1
2.25 -1 1.25
2.25 -1 1.5
2.25 -1 1.75
2.25 -1 2
2.5 -1 0
2.5 -1 0.25
2.5 -1 0.5
2.5 -1 0.75
2.5 -1 1
2.5 -1 1.25
2.5 -1 1.5
2.5 -1 1.75
2.5 -1 2
2.75 -1 0
2.75 -1 0.25
2.75 -1 0.5
2.75 -1 0.75
2.75 -1 1
2.75 -1 1.25
2.75 -1 1.5
2.75 -1 1.75
2.75 -1 2
3 -1 0
3 -1 0.25
3 -1 0.5
3 -1 0.75
3 -1 1
3 -1 1.25
3 -1 1.5
3 -1 1.75
3 -1 2
3.25 -1 0
3.25 -1 0.25
3.25 -1 0.5
3.25 -1 0.75
3.25 -1 1
3.25 -1 1.25
3.25 -1 1.5
3.25 -1 1.75
3.25 -1 2
3.5 -1 0
3.5 -1 0.25
3.5 -1 0.5
3.5 -1 0.75
3.5 -1 1
3.5 -1 1.25
3.5 -1 1.5
3.5 -1 1.75
3.5 -1 2
3.75 -1 0
3.75 -1 0.25
3.75 -1 0.5
3.75 -1 0.75
3.75 -1 1
3.75 -1 1.25
3.75 -1 1.5
3.75 -1 1.75
3.75 -1 2
4 -1 0
4 -1 0.25
4 -1 0.5
4 -1 0.75
4 -1 1
4 -1 1.25
4 -1 1.5
4 -1 1.75
4 -1 2
4.25 -1 0
4.25 -1 0.25
4.25 -1 0.5
4.25 -1 0.75
4.25 -1 1
4.25 -1 1.25
4.25 -1 1.5
4.25 -1 1.75
4.25 -1 2
4.5 -1 0
4.5 -1 0.25
4.5 -1 0.5
4.5 -1 0.75
4.5 -1 1
4.5 -1 1.25
4.5 -1 1.5
4.5 -1 1.75
4.5 -1 2
4.75 -1 0
4.75 -1 0.25
4.75 -1 0.5
4.75 -1 0.75
4.75 -1 1
4.75 -1 1.25
4.75 -1 1.5
4.75 -1 1.75
4.75 -1 2
5 -1 0
5 -1 0.25
5 -1 0.5
5 -1 0.75
5 -1 1
5 -1 1.25
5 -1 1.5
5 -1 1.75
5 -1 2
5.25 -1 0
5.25 -1 0.25
5.25 -1 0.5
5.25 -1 0.75
5.25 -1 1
5.25 -1 1.25
5.25 -1 1.5
5.25 -1 1.75
5.25 -1 2
5.5 -1 0
5.5 -1 0.25
5.5 -1 0.5
5.5 -1 0.75
5.5 -1 1
5.5 -1 1.25
5.5 -1 1.5
5.5 -1 1.75
5.5 -1 2
5.75 -1 0
5.75 -1 0.25
5.75 -1 0.5
5.75 -1 0.75
5.75 -1 1
5.75 -1 1.25
5.75 -1 1.5
5.75 -1 1.75
5.75 -1 2
6 -1 0
6 -1 0.25
6 -1 0.5
6 -1 0.75
6 -1 1
6 -1 1.25
6 -1 1.5
6 -1 1.75
6 -1 2
6.25 -1 0
6.25 -1 0.25
6.25 -1 0.5
6.25 -1 0.75
6.25 -1 1
6.25 -1 1.25
6.25 -1 1.5
6.25 -1 1.75
6.25 -1 2
6.5 -1 0
6.5 -1 0.25
6.5 -1 0.5
6.5 -1 0.75
6.5 -1 1
6.5 -1 1.25
6.5 -1 1.5
6.5 -1 1.75
6.5 -1 2
6.75 -1 0
6.75 -1 0.25
6.75 -1 0.5
6.75 -1 0.75
6.75 -1 1
6.75 -1 1.25
6.75 -1 1.5
6.75 -1 1.75
6.75 -1 2
7 -1 0
7 -1 0.25
7 -1 0.5
7 -1 0.75
7 -1 1
7 -1 1.25
7 -1 1.5
7 -1 1.75
7 -1 2
0 -0.75 0
0.25 -0.75 0
0 -0.5 0
0.25 -0.5 0
0 -0.25 0
0.25 -0.25 0
0 0 0
0.25 0 0
0 0.25 0
0.25 0.25 0
0 0.5 0
0.25 0.5 0
0 0.75 0
0.25 0.75 0
0.5 -0.75 0
0.5 -0.5 0
0.5 -0.25 0
0.5 0 0
0.5 0.25 0
0.5 0.5 0
0.5 0.75 0
0.75 -0.75 0
0.75 -0.5 0
0.75 -0.25 0
0.75 0 0
0.75 0.25 0
0.75 0.5 0
0.75 0.75 0
1 -0.75 0
1 -0.5 0
1 -0.25 0
1 0 0
1 0.25 0
1 0.5 0
1 0.75 0
1.25 -0.75 0
1.25 -0.5 0
1.25 -0.25 0
1.25 0 0
1.25 0.25 0
1.25 0.5 0
1.25 0.75 0
1.5 -0.75 0
1.5 -0.5 0
1.5 -0.25 0
1.5 0 0
1.5 0.25 0
1.5 0.5 0
1.5 0.75 0
1.75 -0.75 0
1.75 -0.5 0
1.75 -0.25 0
1.75 0 0
1.75 0.25 0
1.75 0.5 0
1.75 0.75 0
2 -0.75 0
2 -0.5 0
2 -0.25 0
2 0 0
2 0.25 0
2 0.5 0
2 0.75 0
2.25 -0.75 0
2.25 -0.5 0
2.25 -0.25 0
2.25 0 0
2.25 0.25 0
2.25 0.5 0
2.25 0.75 0
2.5 -0.75 0
2.5 -0.5 0
2.5 -0.25 0
2.5 0 0
2.5 0.25 0
2.5 0.5 0
2.5 0.75 0
2.75 -0.75 0
2.75 -0.5 0
2.75 -0.25 0
2.75 0 0
2.75 0.25 0
2.75 0.5 0
2.75 0.75 0
3 -0.75 0
3 -0.5 0
3 -0.25 0
3 0 0
3 0.25 0
3 0.5 0
3 0.75 0
3.25 -0.75 0
3.25 -0.5 0
3.25 -0.25 0
3.25 0 0
3.25 0.25 0
3.25 0.5 0
3.25 0.75 0
3.5 -0.75 0
3.5 -0.5 0
3.5 -0.25 0
3.5 0 0
3.5 0.25 0
3.5 0.5 0
3.5 0.75 0
3.75 -0.75 0
3.75 -0.5 0
3.75 -0.25 0
3.75 0 0
3.75 0.25 0
3.75 0.5 0
3.75 0.75 0
4 -0.75 0
4 -0.5 0
4 -0.25 0
4 0 0
4 0.25 0
4 0.5 0
4 0.75 0
4.25 -0.75 0
4.25 -0.5 0
4.25 -0.25 0
4.25 0 0
4.25 0.25 0
4.25 0.5 0
4.25 0.75 0
4.5 -0.75 0
4.5 -0.5 0
4.5 -0.25 0
4.5 0 0
4.5 0.25 0
4.5 0.5 0
4.5 0.75 0
4.75 -0.75 0
4.75 -0.5 0
4.75 -0.25 0
4.75 0 0
4.75 0.25 0
4.75 0.5 0
4.75 0.75 0
5 -0.75 0
5 -0.5 0
5 -0.25 0
5 0 0
5 0.25 0
5 0.5 0
5 0.75 0
5.25 -0.75 0
5.25 -0.5 0
5.25 -0.25 0
5.25 0 0
5.25 0.25 0
5.25 0.5 0
5.25 0.75 0
5.5 -0.75 0
5.5 -0.5 0
5.5 -0.25 0
5.5 0 0
5.5 0.25 0
5.5 0.5 0
5.5 0.75 0
5.75 -0.75 0
5.75 -0.5 0
5.75 -0.25 0
5.75 0 0
5.75 0.25 0
5.75 0.5 0
5.75 0.75 0
6 -0.75 0
6 -0.5 0
6 -0.25 0
6 0 0
6 0.25 0
6 0.5 0
6 0.75 0
6.25 -0.75 0
6.25 -0.5 0
6.25 -0.25 0
6.25 0 0
6.25 0.25 0
6.25 0.5 0
6.25 0.75 0
6.5 -0.75 0
6.5 -0.5 0
6.5 -0.25 0
6.5 0 0
6.5 0.25 0
6.5 0.5 0
6.5 0.75 0
6.75 -0.75 0
6.75 -0.5 0
6.75 -0.25 0
6.75 0 0
6.75 0.25 0
6.75 0.5 0
6.75 0.75 0
7 -0.75 0
7 -0.5 0
7 -0.25 0
7 0 0
7 0.25 0
7 0.5 0
7 0.75 0
0.25 -0.75 2
0 -0.75 2
0.25 -0.5 2
0 -0.5 2
0.25 -0.25 2
0 -0.25 2
0.25 0 2
0 0 2
0.25 0.25 2
0 0.25 2
0.25 0.5 2
0 0.5 2
0.25 0.75 2
0 0.75 2
0.5 -0.75 2
0.5 -0.5 2
0.5 -0.25 2
0.5 0 2
0.5 0.25 2
0.5 0.5 2
0.5 0.75 2
0.75 -0.75 2
0.75 -0.5 2
0.75 -0.25 2
0.75 0 2
0.75 0.25 2
0.75 0.5 2
0.75 0.75 2
1 -0.75 2
1 -0.5 2
1 -0.25 2
1 0 2
1 0.25 2
1 0.5 2
1 0.75 2
1.25 -0.75 2
1.25 -0.5 2
1.25 -0.25 2
1.25 0 2
1.25 0.25 2
1.25 0.5 2
1.25 0.75 2
1.5 -0.75 2
1.5 -0.5 2
1.5 -0.25 2
1.5 0 2
1.5 0.25 2
1.5 0.5 2
1.5 0.75 2
1.75 -0.75 2
1.75 -0.5 2
1.75 -0.25 2
1.75 0 2
1.75 0.25 2
1.75 0.5 2
1.75 0.75 2
2 -0.75 2
2 -0.5 2
2 -0.25 2
2 0 2
2 0.25 2
2 0.5 2
2 0.75 2
2.25 -0.75 2
2.25 -0.5 2
2.25 -0.25 2
2.25 0 2
2.25 0.25 2
2.25 0.5 2
2.25 0.75 2
2.5 -0.75 2
2.5 -0.5 2
2.5 -0.25 2
2.5 0 2
2.5 0.25 2
2.5 0.5 2
2.5 0.75 2
2.75 -0.75 2
2.75 -0.5 2
2.75 -0.25 2
2.75 0 2
2.75 0.25 2
2.75 0.5 2
2.75 0.75 2
3 -0.75 2
3 -0.5 2
3 -0.25 2
3 0 2
3 0.25 2
3 0.5 2
3 0.75 2
3.25 -0.75 2
3.25 -0.5 2
3.25 -0.25 2
3.25 0 2
3.25 0.25 2
3.25 0.5 2
3.25 0.75 2
3.5 -0.75 2
3.5 -0.5 2
3.5 -0.25 2
3.5 0 2
3.5 0.25 2
3.5 0.5 2
3.5 0.75 2
3.75 -0.75 2
3.75 -0.5 2
3.75 -0.25 2
3.75 0 2
3.75 0.25 2
3.75 0.5 2
3.75 0.75 2
4 -0.75 2
4 -0.5 2
4 -0.25 2
4 0 2
4 0.25 2
4 0.5 2
4 0.75 2
4.25 -0.75 2
4.25 -0.5 2
4.25 -0.25 2
4.25 0 2
4.25 0.25 2
4.25 0.5 2
4.25 0.75 2
4.5 -0.75 2
4.5 -0.5 2
4.5 -0.25 2
4.5 0 2
4.5 0.25 2
4.5 0.5 2
4.5 0.75 2
4.75 -0.75 2
4.75 -0.5 2
4.75 -0.25 2
4.75 0 2
4.75 0.25 2
4.75 0.5 2
4.75 0.75 2
5 -0.75 2
5 -0.5 2
5 -0.25 2
5 0 2
5 0.25 2
5 0.5 2
5 0.75 2
5.25 -0.75 2
5.25 -0.5 2
5.25 -0.25 2
5.25 0 2
5.25 0.25 2
5.25 0.5 2
5.25 0.75 2
5.5 -0.75 2
5.5 -0.5 2
5.5 -0.25 2
5.5 0 2
5.5 0.25 2
5.5 0.5 2
5.5 0.75 2
5.75 -0.75 2
5.75 -0.5 2
5.75 -0.25 2
5.75 0 2
5.75 0.25 2
5.75 0.5 2
5.75 0.75 2
6 -0.75 2
6 -0.5 2
6 -0.25 2
6 0 2
6 0.25 2
6 0.5 2
6 0.75 2
6.25 -0.75 2
6.25 -0.5 2
6.25 -0.25 2
6.25 0 2
6.25 0.25 2
6.25 0.5 2
6.25 0.75 2
6.5 -0.75 2
6.5 -0.5 2
6.5 -0.25 2
6.5 0 2
6.5 0.25 2
6.5 0.5 2
6.5 0.75 2
6.75 -0.75 2
6.75 -0.5 2
6.75 -0.25 2
6.75 0 2
6.75 0.25 2
6.75 0.5 2
6.75 0.75 2
7 -0.75 2
7 -0.5 2
7 -0.25 2
7 0 2
7 0.25 2
7 0.5 2
7 0.75 2
0 -0.75 0.25
0 -0.75 0.5
0 -0.75 0.75
0 -0.75 1
0 -0.75 1.25
0 -0.75 1.5
0 -0.75 1.75
0 -0.5 0.25
0 -0.5 0.5
0 -0.5 0.75
0 -0.5 1
0 -0.5 1.25
0 -0.5 1.5
0 -0.5 1.75
0 -0.25 0.25
0 -0.25 0.5
0 -0.25 0.75
0 -0.25 1
0 -0.25 1.25
0 -0.25 1.5
0 -0.25 1.75
0 0 0.25
0 0 0.5
0 0 0.75
0 0 1
0 0 1.25
0 0 1.5
0 0 1.75
0 0.25 0.25
0 0.25 0.5
0 0.25 0.75
0 0.25 1
0 0.25 1.25
0 0.25 1.5
0 0.25 1.75
0 0.5 0.25
0 0.5 0.5
0 0.5 0.75
0 0.5 1
0 0.5 1.25
0 0.5 1.5
0 0.5 1.75
0 0.75 0.25
0 0.75 0.5
0 0.75 0.75
0 0.75 1
0 0.75 1.25
0 0.75 1.5
0 0.75 1.75
7 -0.75 0.25
7 -0.75 0.5
7 -0.75 0.75
7 -0.75 1
7 -0.75 1.25
7 -0.75 1.5
7 -0.75 1.75
7 -0.5 0.25
7 -0.5 0.5
7 -0.5 0.75
7 -0.5 1
7 -0.5 1.25
7 -0.5 1.5
7 -0.5 1.75
7 -0.25 0.25
7 -0.25 0.5
7 -0.25 0.75
7 -0.25 1
7 -0.25 1.25
7 -0.25 1.5
7 -0.25 1.75
7 0 0.25
7 0 0.5
7 0 0.75
7 0 1
7 0 1.25
7 0 1.5
7 0 1.75
7 0.25 0.25
7 0.25 0.5
7 0.25 0.75
7 0.25 1
7 0.25 1.25
7 0.25 1.5
7 0.25 1.75
7 0.5 0.25
7 0.5 0.5
7 0.5 0.75
7 0.5 1
7 0.5 1.25
7 0.5 1.5
7 0.5 1.75
7 0.75 0.25
7 0.75 0.5
7 0.75 0.75
7 0.75 1
7 0.75 1.25
7 0.75 1.5
7 0.75 1.75
$EndNodes
$Elements
1 1008 1 1008
2 1 3 1008
1 1 2 3 4
2 2 5 6 3
3 5 7 8 6
4 7 9 10 8
5 9 11 12 10
6 11 13 14 12
7 13 15 16 14
8 15 17 18 16
9 4 3 19 20
10 3 6 21 19
11 6 8 22 21
12 8 10 23 22
13 10 12 24 23
14 12 14 25 24
15 14 16 26 25
16 16 18 27 26
17 20 19 28 29
18 19 21 30 28
19 21 22 31 30
20 22 23 32 31
21 23 24 33 32
22 24 25 34 33
23 25 26 35 34
24 26 27 36 35
25 29 28 37 38
26 28 30 39 37
27 30 31 40 39
28 31 32 41 40
29 32 33 42 41
30 33 34 43 42
31 34 35 44 43
32 35 36 45 44
33 38 37 46 47
34 37 39 48 46
35 39 40 49 48
36 40 41 50 49
37 41 42 51 50
38 42 43 52 51
39 43 44 53 52
40 44 45 54 53
41 47 46 55 56
42 46 48 57 55
43 48 49 58 57
44 49 50 59 58
45 50 51 60 59
46 51 52 61 60
47 52 53 62 61
48 53 54 63 62
49 56 55 64 65
50 55 57 66 64
51 57 58 67 66
52 58 59 68 67
53 59 60 69 68
54 60 61 70 69
55 61 62 71 70
56 62 63 72 71
57 65 64 73 74
58 64 66 75 73
59 66 67 76 75
60 67 68 77 76
61 68 69 78 77
62 69 70 79 78
63 70 71 80 79
64 71 72 81 80
65 74 73 82 83
66 73 75 84 82
67 75 76 85 84
68 76 77 86 85
69 77 78 87 86
70 78 79 88 87
71 79 80 89 88
72 80 81 90 89
73 83 82 91 92
74 82 84 93 91
75 84 85 94 93
76 85 86 95 94
77 86 87 96 95
78 87 88 97 96
79 88 89 98 97
80 89 90 99 98
81 92 91 100 101
82 91 93 102 100
83 93 94 103 102
84 94 95 104 103
85 95 96 105 104
86 96 97 106 105
87 97 98 107 106
88 98 99 108 107
89 101 100 109 110
90 100 102 111 109
91 102 103 112 111
92 103 104 113 112
93 104 105 114 113
94 105 106 115 114
95 106 107 116 115
96 107 108 117 116
97 110 109 118 119
98 109 111 120 118
99 115 116 121 122
100 116 117 123 121
101 119 118 124 125
102 118 120 126 124
103 122 121 127 128
104 121 123 129 127
105 125 124 130 131
106 124 126 132 130
107 128 127 133 134
108 127 129 135 133
109 131 130 136 137
110 130 132 138 136
111 134 133 139 140
112 133 135 141 139
113 137 136 142 143
114 136 138 144 142
115 138 145 146 144
116 145 147 148 146
117 147 149 150 148
118 149 140 151 150
119 140 139 152 151
120 139 141 153 152
121 143 142 154 155
122 142 144 156 154
123 144 146 157 156
124 146 148 158 157
125 148 150 159 158
126 150 151 160 159
127 151 152 161 160
128 152 153 162 161
129 155 154 163 164
130 154 156 165 163
131 156 157 166 165
132 157 158 167 166
133 158 159 168 167
134 159 160 169 168
135 160 161 170 169
136 161 162 171 170
137 164 163 172 173
138 163 165 174 172
139 165 166 175 174
140 166 167 176 175
141 167 168 177 176
142 168 169 178 177
143 169 170 179 178
144 170 171 180 179
145 173 172 181 182
146 172 174 183 181
147 174 175 184 183
148 175 176 185 184
149 176 177 186 185
150 177 178 187 186
151 178 179 188 187
152 179 180 189 188
153 182 181 190 191
154 181 183 192 190
155 183 184 193 192
156 184 185 194 193
157 185 186 195 194
158 186 187 196 195
159 187 188 197 196
160 188 189 198 197
161 191 190 199 200
162 190 192 201 199
163 192 193 202 201
164 193 194 203 202
165 194 195 204 203
166 195 196 205 204
167 196 197 206 205
168 197 198 207 206
169 200 199 208 209
170 199 201 210 208
171 201 202 211 210
172 202 203 212 211
173 203 204 213 212
174 204 205 214 213
175 205 206 215 214
176 206 207 216 215
177 209 208 217 218
178 208 210 219 217
179 210 211 220 219
180 211 212 221 220
181 212 213 222 221
182 213 214 223 222
183 214 215 224 223
184 215 216 225 224
185 218 217 226 227
186 217 219 228 226
187 219 220 229 228
188 220 221 230 229
189 221 222 231 230
190 222 223 232 231
191 223 224 233 232
192 224 225 234 233
193 227 226 235 236
194 226 228 237 235
195 228 229 238 237
196 229 230 239 238
197 230 231 240 239
198 231 232 241 240
199 232 233 242 241
200 233 234 243 242
201 236 235 244 245
202 235 237 246 244
203 237 238 247 246
204 238 239 248 247
205 239 240 249 248
206 240 241 250 249
207 241 242 251 250
208 242 243 252 251
209 253 254 255 256
210 256 255 257 258
211 258 257 259 260
212 260 259 261 262
213 262 261 263 264
214 264 263 265 266
215 266 265 267 268
216 268 267 269 270
217 254 271 272 255
218 255 272 273 257
219 257 273 274 259
220 259 274 275 261
221 261 275 276 263
222 263 276 277 265
223 265 277 278 267
224 267 278 279 269
225 271 280 281 272
226 272 281 282 273
227 273 282 283 274
228 274 283 284 275
229 275 284 285 276
230 276 285 286 277
231 277 286 287 278
232 278 287 288 279
233 280 289 290 281
234 281 290 291 282
235 282 291 292 283
236 283 292 293 284
237 284 293 294 285
238 285 294 295 286
239 286 295 296 287
240 287 296 297 288
241 289 298 299 290
242 290 299 300 291
243 291 300 301 292
244 292 301 302 293
245 293 302 303 294
246 294 303 304 295
247 295 304 305 296
248 296 305 306 297
249 298 307 308 299
250 299 308 309 300
251 300 309 310 301
252 301 310 311 302
253 302 311 312 303
254 303 312 313 304
255 304 313 314 305
256 305 314 315 306
257 307 316 317 308
258 308 317 318 309
259 309 318 319 310
260 310 319 320 311
261 311 320 321 312
262 312 321 322 313
263 313 322 323 314
264 314 323 324 315
265 316 325 326 317
266 317 326 327 318
267 318 327 328 319
268 319 328 329 320
269 320 329 330 321
270 321 330 331 322
271 322 331 332 323
272 323 332 333 324
273 325 334 335 326
274 326 335 336 327
275 327 336 337 328
276 328 337 338 329
277 329 338 339 330
278 330 339 340 331
279 331 340 341 332
280 332 341 342 333
281 334 343 344 335
282 335 344 345 336
283 336 345 346 337
284 337 346 347 338
285 338 347 348 339
286 339 348 349 340
287 340 349 350 341
288 341 350 351 342
289 343 352 353 344
290 344 353 354 345
291 345 354 355 346
292 346 355 356 347
293 347 356 357 348
294 348 357 358 349
295 349 358 359 350
296 350 359 360 351
297 352 361 362 353
298 353 362 363 354
299 354 363 364 355
300 355 364 365 356
301 356 365 366 357
302 357 366 367 358
303 358 367 368 359
304 359 368 369 360
305 361 370 371 362
306 362 371 372 363
307 363 372 373 364
308 364 373 374 365
309 365 374 375 366
310 366 375 376 367
311 367 376 377 368
312 368 377 378 369
313 370 379 380 371
314 371 380 381 372
315 372 381 382 373
316 373 382 383 374
317 374 383 384 375
318 375 384 385 376
319 376 385 386 377
320 377 386 387 378
321 379 388 389 380
322 380 389 390 381
323 381 390 391 382
324 382 391 392 383
325 383 392 393 384
326 384 393 394 385
327 385 394 395 386
328 386 395 396 387
329 388 397 398 389
330 389 398 399 390
331 390 399 400 391
332 391 400 401 392
333 392 401 402 393
334 393 402 403 394
335 394 403 404 395
336 395 404 405 396
337 397 406 407 398
338 398 407 408 399
339 399 408 409 400
340 400 409 410 401
341 401 410 411 402
342 402 411 412 403
343 403 412 413 404
344 404 413 414 405
345 406 415 416 407
346 407 416 417 408
347 408 417 418 409
348 409 418 419 410
349 410 419 420 411
350 411 420 421 412
351 412 421 422 413
352 413 422 423 414
353 415 424 425 416
354 416 425 426 417
355 417 426 427 418
356 418 427 428 419
357 419 428 429 420
358 420 429 430 421
359 421 430 431 422
360 422 431 432 423
361 424 433 434 425
362 425 434 435 426
363 426 435 436 427
364 427 436 437 428
365 428 437 438 429
366 429 438 439 430
367 430 439 440 431
368 431 440 441 432
369 433 442 443 434
370 434 443 444 435
371 435 444 445 436
372 436 445 446 437
373 437 446 447 438
374 438 447 448 439
375 439 448 449 440
376 440 449 450 441
377 442 451 452 443
378 443 452 453 444
379 444 453 454 445
380 445 454 455 446
381 446 455 456 447
382 447 456 457 448
383 448 457 458 449
384 449 458 459 450
385 451 460 461 452
386 452 461 462 453
387 453 462 463 454
388 454 463 464 455
389 455 464 465 456
390 456 465 466 457
391 457 466 467 458
392 458 467 468 459
393 460 469 470 461
394 461 470 471 462
395 462 471 472 463
396 463 472 473 464
397 464 473 474 465
398 465 474 475 466
399 466 475 476 467
400 467 476 477 468
401 469 478 479 470
402 470 479 480 471
403 471 480 481 472
404 472 481 482 473
405 473 482 483 474
406 474 483 484 475
407 475 484 485 476
408 476 485 486 477
409 478 487 488 479
410 479 488 489 480
411 480 489 490 481
412 481 490 491 482
413 482 491 492 483
414 483 492 493 484
415 484 493 494 485
416 485 494 495 486
417 487 496 497 488
418 488 497 498 489
419 489 498 499 490
420 490 499 500 491
421 491 500 501 492
422 492 501 502 493
423 493 502 503 494
424 494 503 504 495
425 496 505 506 497
426 497 506 507 498
427 498 507 508 499
428 499 508 509 500
429 500 509 510 501
430 501 510 511 502
431 502 511 512 503
432 503 512 513 504
433 253 514 515 254
434 514 516 517 515
435 516 518 519 517
436 518 520 521 519
437 520 522 523 521
438 522 524 525 523
439 524 526 527 525
440 526 1 4 527
441 254 515 528 271
442 515 517 529 528
443 517 519 530 529
444 519 521 531 530
445 521 523 532 531
446 523 525 533 532
447 525 527 534 533
448 527 4 20 534
449 271 528 535 280
450 528 529 536 535
451 529 530 537 536
452 530 531 538 537
453 531 532 539 538
454 532 533 540 539
455 533 534 541 540
456 534 20 29 541
457 280 535 542 289
458 535 536 543 542
459 536 537 544 543
460 537 538 545 544
461 538 539 546 545
462 539 540 547 546
463 540 541 548 547
464 541 29 38 548
465 289 542 549 298
466 542 543 550 549
467 543 544 551 550
468 544 545 552 551
469 545 546 553 552
470 546 547 554 553
471 547 548 555 554
472 548 38 47 555
473 298 549 556 307
474 549 550 557 556
475 550 551 558 557
476 551 552 559 558
477 552 553 560 559
478 553 554 561 560
479 554 555 562 561
480 555 47 56 562
481 307 556 563 316
482 556 557 564 563
483 557 558 565 564
484 558 559 566 565
485 559 560 567 566
486 560 561 568 567
487 561 562 569 568
488 562 56 65 569
489 316 563 570 325
490 563 564 571 570
491 564 565 572 571
492 565 566 573 572
493 566 567 574 573
494 567 568 575 574
495 568 569 576 575
496 569 65 74 576
497 325 570 577 334
498 570 571 578 577
499 571 572 579 578
500 572 573 580 579
501 573 574 581 580
502 574 575 582 581
503 575 576 583 582
504 576 74 83 583
505 334 577 584 343
506 577 578 585 584
507 578 579 586 585
508 579 580 587 586
509 580 581 588 587
510 581 582 589 588
511 582 583 590 589
512 583 83 92 590
513 343 584 591 352
514 584 585 592 591
515 585 586 593 592
516 586 587 594 593
517 587 588 595 594
518 588 589 596 595
519 589 590 597 596
520 590 92 101 597
521 352 591 598 361
522 591 592 599 598
523 592 593 600 599
524 593 594 601 600
525 594 595 602 601
526 595 596 603 602
527 596 597 604 603
528 597 101 110 604
529 361 598 605 370
530 598 599 606 605
531 599 600 607 606
532 600 601 608 607
533 601 602 609 608
534 602 603 610 609
535 603 604 611 610
536 604 110 119 611
537 370 605 612 379
538 605 606 613 612
539 606 607 614 613
540 607 608 615 614
541 608 609 616 615
542 609 610 617 616
543 610 611 618 617
544 611 119 125 618
545 379 612 619 388
546 612 613 620 619
547 613 614 621 620
548 614 615 622 621
549 615 616 623 622
550 616 617 624 623
551 617 618 625 624
552 618 125 131 625
553 388 619 626 397
554 619 620 627 626
555 620 621 628 627
556 621 622 629 628
557 622 623 630 629
558 623 624 631 630
559 624 625 632 631
560 625 131 137 632
561 397 626 633 406
562 626 627 634 633
563 627 628 635 634
564 628 629 636 635
565 629 630 637 636
566 630 631 638 637
567 631 632 639 638
568 632 137 143 639
569 406 633 640 415
570 633 634 641 640
571 634 635 642 641
572 635 636 643 642
573 636 637 644 643
574 637 638 645 644
575 638 639 646 645
576 639 143 155 646
577 415 640 647 424
578 640 641 648 647
579 641 642 649 648
580 642 643 650 649
581 643 644 651 650
582 644 645 652 651
583 645 646 653 652
584 646 155 164 653
585 424 647 654 433
586 647 648 655 654
587 648 649 656 655
588 649 650 657 656
589 650 651 658 657
590 651 652 659 658
591 652 653 660 659
592 653 164 173 660
593 433 654 661 442
594 654 655 662 661
595 655 656 663 662
596 656 657 664 663
597 657 658 665 664
598 658 659 666 665
599 659 660 667 666
600 660 173 182 667
601 442 661 668 451
602 661 662 669 668
603 662 663 670 669
604 663 664 671 670
605 664 665 672 671
606 665 666 673 672
607 666 667 674 673
608 667 182 191 674
609 451 668 675 460
610 668 669 676 675
611 669 670 677 676
612 670 671 678 677
613 671 672 679 678
614 672 673 680 679
615 673 674 681 680
616 674 191 200 681
617 460 675 682 469
618 675 676 683 682
619 676 677 684 683
620 677 678 685 684
621 678 679 686 685
622 679 680 687 686
623 680 681 688 687
624 681 200 209 688
625 469 682 689 478
626 682 683 690 689
627 683 684 691 690
628 684 685 692 691
629 685 686 693 692
630 686 687 694 693
631 687 688 695 694
632 688 209 218 695
633 478 689 696 487
634 689 690 697 696
635 690 691 698 697
636 691 692 699 698
637 692 693 700 699
638 693 694 701 700
639 694 695 702 701
640 695 218 227 702
641 487 696 703 496
642 696 697 704 703
643 697 698 705 704
644 698 699 706 705
645 699 700 707 706
646 700 701 708 707
647 701 702 709 708
648 702 227 236 709
649 496 703 710 505
650 703 704 711 710
651 704 705 712 711
652 705 706 713 712
653 706 707 714 713
654 707 708 715 714
655 708 709 716 715
656 709 236 245 716
657 270 269 717 718
658 718 717 719 720
659 720 719 721 722
660 722 721 723 724
661 724 723 725 726
662 726 725 727 728
663 728 727 729 730
664 730 729 18 17
665 269 279 731 717
666 717 731 732 719
667 719 732 733 721
668 721 733 734 723
669 723 734 735 725
670 725 735 736 727
671 727 736 737 729
672 729 737 27 18
673 279 288 738 731
674 731 738 739 732
675 732 739 740 733
676 733 740 741 734
677 734 741 742 735
678 735 742 743 736
679 736 743 744 737
680 737 744 36 27
681 288 297 745 738
682 738 745 746 739
683 739 746 747 740
684 740 747 748 741
685 741 748 749 742
686 742 749 750 743
687 743 750 751 744
688 744 751 45 36
689 297 306 752 745
690 745 752 753 746
691 746 753 754 747
692 747 754 755 748
693 748 755 756 749
694 749 756 757 750
695 750 757 758 751
696 751 758 54 45
697 306 315 759 752
698 752 759 760 753
699 753 760 761 754
700 754 761 762 755
701 755 762 763 756
702 756 763 764 757
703 757 764 765 758
704 758 765 63 54
705 315 324 766 759
706 759 766 767 760
707 760 767 768 761
708 761 768 769 762
709 762 769 770 763
710 763 770 771 764
711 764 771 772 765
712 765 772 72 63
713 324 333 773 766
714 766 773 774 767
715 767 774 775 768
716 768 775 776 769
717 769 776 777 770
718 770 777 778 771
719 771 778 779 772
720 772 779 81 72
721 333 342 780 773
722 773 780 781 774
723 774 781 782 775
724 775 782 783 776
725 776 783 784 777
726 777 784 785 778
727 778 785 786 779
728 779 786 90 81
729 342 351 787 780
730 780 787 788 781
731 781 788 789 782
732 782 789 790 783
733 783 790 791 784
734 784 791 792 785
735 785 792 793 786
736 786 793 99 90
737 351 360 794 787
738 787 794 795 788
739 788 795 796 789
740 789 796 797 790
741 790 797 798 791
742 791 798 799 792
743 792 799 800 793
744 793 800 108 99
745 360 369 801 794
746 794 801 802 795
747 795 802 803 796
748 796 803 804 797
749 797 804 805 798
750 798 805 806 799
751 799 806 807 800
752 800 807 117 108
753 369 378 808 801
754 801 808 809 802
755 802 809 810 803
756 803 810 811 804
757 804 811 812 805
758 805 812 813 806
759 806 813 814 807
760 807 814 123 117
761 378 387 815 808
762 808 815 816 809
763 809 816 817 810
764 810 817 818 811
765 811 818 819 812
766 812 819 820 813
767 813 820 821 814
768 814 821 129 123
769 387 396 822 815
770 815 822 823 816
771 816 823 824 817
772 817 824 825 818
773 818 825 826 819
774 819 826 827 820
775 820 827 828 821
776 821 828 135 129
777 396 405 829 822
778 822 829 830 823
779 823 830 831 824
780 824 831 832 825
781 825 832 833 826
782 826 833 834 827
783 827 834 835 828
784 828 835 141 135
785 405 414 836 829
786 829 836 837 830
787 830 837 838 831
788 831 838 839 832
789 832 839 840 833
790 833 840 841 834
791 834 841 842 835
792 835 842 153 141
793 414 423 843 836
794 836 843 844 837
795 837 844 845 838
796 838 845 846 839
797 839 846 847 840
798 840 847 848 841
799 841 848 849 842
800 842 849 162 153
801 423 432 850 843
802 843 850 851 844
803 844 851 852 845
804 845 852 853 846
805 846 853 854 847
806 847 854 855 848
807 848 855 856 849
808 849 856 171 162
809 432 441 857 850
810 850 857 858 851
811 851 858 859 852
812 852 859 860 853
813 853 860 861 854
814 854 861 862 855
815 855 862 863 856
816 856 863 180 171
817 441 450 864 857
818 857 864 865 858
819 858 865 866 859
820 859 866 867 860
821 860 867 868 861
822 861 868 869 862
823 862 869 870 863
824 863 870 189 180
825 450 459 871 864
826 864 871 872 865
827 865 872 873 866
828 866 873 874 867
829 867 874 875 868
830 868 875 876 869
831 869 876 877 870
832 870 877 198 189
833 459 468 878 871
834 871 878 879 872
835 872 879 880 873
836 873 880 881 874
837 874 881 882 875
838 875 882 883 876
839 876 883 884 877
840 877 884 207 198
841 468 477 885 878
842 878 885 886 879
843 879 886 887 880
844 880 887 888 881
845 881 888 889 882
846 882 889 890 883
847 883 890 891 884
848 884 891 216 207
849 477 486 892 885
850 885 892 893 886
851 886 893 894 887
852 887 894 895 888
853 888 895 896 889
854 889 896 897 890
855 890 897 898 891
856 891 898 225 216
857 486 495 899 892
858 892 899 900 893
859 893 900 901 894
860 894 901 902 895
861 895 902 903 896
862 896 903 904 897
863 897 904 905 898
864 898 905 234 225
865 495 504 906 899
866 899 906 907 900
867 900 907 908 901
868 901 908 909 902
869 902 909 910 903
870 903 910 911 904
871 904 911 912 905
872 905 912 243 234
873 504 513 913 906
874 906 913 914 907
875 907 914 915 908
876 908 915 916 909
877 909 916 917 910
878 910 917 918 911
879 911 918 919 912
880 912 919 252 243
881 253 256 920 514
882 256 258 921 920
883 258 260 922 921
884 260 262 923 922
885 262 264 924 923
886 264 266 925 924
887 266 268 926 925
888 268 270 718 926
889 514 920 927 516
890 920 921 928 927
891 921 922 929 928
892 922 923 930 929
893 923 924 931 930
894 924 925 932 931
895 925 926 933 932
896 926 718 720 933
897 516 927 934 518
898 927 928 935 934
899 928 929 936 935
900 929 930 937 936
901 930 931 938 937
902 931 932 939 938
903 932 933 940 939
904 933 720 722 940
905 518 934 941 520
906 934 935 942 941
907 935 936 943 942
908 936 937 944 943
909 937 938 945 944
910 938 939 946 945
911 939 940 947 946
912 940 722 724 947
913 520 941 948 522
914 941 942 949 948
915 942 943 950 949
916 943 944 951 950
917 944 945 952 951
918 945 946 953 952
919 946 947 954 953
920 947 724 726 954
921 522 948 955 524
922 948 949 956 955
923 949 950 957 956
924 950 951 958 957
925 951 952 959 958
926 952 953 960 959
927 953 954 961 960
928 954 726 728 961
929 524 955 962 526
930 955 956 963 962
931 956 957 964 963
932 957 958 965 964
933 958 959 966 965
934 959 960 967 966
935 960 961 968 967
936 961 728 730 968
937 526 962 2 1
938 962 963 5 2
939 963 964 7 5
940 964 965 9 7
941 965 966 11 9
942 966 967 13 11
943 967 968 15 13
944 968 730 17 15
945 505 710 969 506
946 506 969 970 507
947 507 970 971 508
948 508 971 972 509
949 509 972 973 510
950 510 973 974 511
951 511 974 975 512
952 512 975 913 513
953 710 711 976 969
954 969 976 977 970
955 970 977 978 971
956 971 978 979 972
957 972 979 980 973
958 973 980 981 974
959 974 981 982 975
960 975 982 914 913
961 711 712 983 976
962 976 983 984 977
963 977 984 985 978
964 978 985 986 979
965 979 986 987 980
966 980 987 988 981
967 981 988 989 982
968 982 989 915 914
969 712 713 990 983
970 983 990 991 984
971 984 991 992 985
972 985 992 993 986
973 986 993 994 987
974 987 994 995 988
975 988 995 996 989
976 989 996 916 915
977 713 714 997 990
978 990 997 998 991
979 991 998 999 992
980 992 999 1000 993
981 993 1000 1001 994
982 994 1001 1002 995
983 995 1002 1003 996
984 996 1003 917 916
985 714 715 1004 997
986 997 1004 1005 998
987 998 1005 1006 999
988 999 1006 1007 1000
989 1000 1007 1008 1001
990 1001 1008 1009 1002
991 1002 1009 1010 1003
992 1003 1010 918 917
993 715 716 1011 1004
994 1004 1011 1012 1005
995 1005 1012 1013 1006
996 1006 1013 1014 1007
997 1007 1014 1015 1008
998 1008 1015 1016 1009
999 1009 1016 1017 1010
1000 1010 1017 919 918
1001 716 245 244 1011
1002 1011 244 246 1012
1003 1012 246 247 1013
1004 1013 247 248 1014
1005 1014 248 249 1015
1006 1015 249 250 1016
1007 1016 250 251 1017
1008 1017 251 252 919
$EndElements
