$MeshFormat
4.1 0 8
$EndMeshFormat
$PhysicalNames
1
2 1 "PEC_plate"
$EndPhysicalNames
$Entities
4 4 1 0
1 -0.5 -0.5 0 0 
2 0.5 -0.5 0 0 
3 0.5 0.5 0 0 
4 -0.5 0.5 0 0 
1 -0.5 -0.5 0 0.5 -0.5 0 0 2 1 -2 
2 0.5 -0.5 0 0.5 0.5 0 0 2 2 -3 
3 -0.5 0.5 0 0.5 0.5 0 0 2 3 -4 
4 -0.5 -0.5 0 -0.5 0.5 0 0 2 4 -1 
1 -0.5 -0.5 0 0.5 0.5 0 1 1 4 1 2 3 4 
$EndEntities
$Nodes
9 100 1 100
0 1 0 1
1
-0.5 -0.5 0
0 2 0 1
2
0.5 -0.5 0
0 3 0 1
3
0.5 0.5 0
0 4 0 1
4
-0.5 0.5 0
1 1 0 8
5
6
7
8
9
10
11
12
-0.3888888888891969 -0.5 0
-0.2777777777783941 -0.5 0
-0.1666666666675908 -0.5 0
-0.05555555555678759 -0.5 0
0.05555555555432368 -0.5 0
0.1666666666657428 -0.5 0
0.2777777777771618 -0.5 0
0.388888888888581 -0.5 0
1 2 0 8
13
14
15
16
17
18
19
20
0.5 -0.3888888888891969 0
0.5 -0.2777777777783941 0
0.5 -0.1666666666675908 0
0.5 -0.05555555555678759 0
0.5 0.05555555555432368 0
0.5 0.1666666666657428 0
0.5 0.2777777777771618 0
0.5 0.388888888888581 0
1 3 0 8
21
22
23
24
25
26
27
28
0.3888888888891969 0.5 0
0.2777777777783941 0.5 0
0.1666666666675908 0.5 0
0.05555555555678759 0.5 0
-0.05555555555432368 0.5 0
-0.1666666666657428 0.5 0
-0.2777777777771618 0.5 0
-0.388888888888581 0.5 0
1 4 0 8
29
30
31
32
33
34
35
36
-0.5 0.3888888888891969 0
-0.5 0.2777777777783941 0
-0.5 0.1666666666675908 0
-0.5 0.05555555555678759 0
-0.5 -0.05555555555432368 0
-0.5 -0.1666666666657428 0
-0.5 -0.2777777777771618 0
-0.5 -0.388888888888581 0
2 1 0 64
37
38
39
40
41
42
43
44
45
46
47
48
49
50
51
52
53
54
55
56
57
58
59
60
61
62
63
64
65
66
67
68
69
70
71
72
73
74
75
76
77
78
79
80
81
82
83
84
85
86
87
88
89
90
91
92
93
94
95
96
97
98
99
100
-0.3888888888891285 -0.3888888888886494 0
-0.3888888888890601 -0.2777777777772987 0
-0.3888888888889915 -0.1666666666659482 0
-0.3888888888889231 -0.05555555555459749 0
-0.3888888888888548 0.05555555555651381 0
-0.3888888888887864 0.1666666666673855 0
-0.3888888888887178 0.2777777777782572 0
-0.3888888888886494 0.3888888888891285 0
-0.2777777777782571 -0.3888888888887178 0
-0.2777777777781201 -0.2777777777774356 0
-0.2777777777779833 -0.1666666666661534 0
-0.2777777777778464 -0.05555555555487121 0
-0.2777777777777095 0.05555555555624003 0
-0.2777777777775725 0.1666666666671802 0
-0.2777777777774357 0.2777777777781202 0
-0.2777777777772987 0.38888888888906 0
-0.1666666666673856 -0.3888888888887862 0
-0.1666666666671801 -0.2777777777775726 0
-0.1666666666669749 -0.1666666666663588 0
-0.1666666666667695 -0.05555555555514494 0
-0.1666666666665641 0.05555555555596631 0
-0.1666666666663588 0.1666666666669748 0
-0.1666666666661535 0.2777777777779833 0
-0.1666666666659482 0.3888888888889915 0
-0.05555555555651383 -0.3888888888888548 0
-0.05555555555624005 -0.2777777777777095 0
-0.05555555555596631 -0.1666666666665641 0
-0.05555555555569251 -0.05555555555541873 0
-0.05555555555541875 0.05555555555569254 0
-0.05555555555514499 0.1666666666667695 0
-0.05555555555487121 0.2777777777778464 0
-0.05555555555459744 0.3888888888889231 0
0.05555555555459746 -0.3888888888889231 0
0.05555555555487119 -0.2777777777778464 0
0.05555555555514499 -0.1666666666667694 0
0.05555555555541876 -0.05555555555569251 0
0.05555555555569253 0.05555555555541875 0
0.05555555555596628 0.1666666666665642 0
0.05555555555624006 0.2777777777777095 0
0.05555555555651386 0.3888888888888548 0
0.1666666666659481 -0.3888888888889915 0
0.1666666666661535 -0.2777777777779833 0
0.1666666666663588 -0.1666666666669748 0
0.1666666666665642 -0.05555555555596631 0
0.1666666666667695 0.05555555555514499 0
0.1666666666669749 0.1666666666663588 0
0.1666666666671802 0.2777777777775726 0
0.1666666666673855 0.3888888888887864 0
0.2777777777772987 -0.38888888888906 0
0.2777777777774358 -0.2777777777781201 0
0.2777777777775725 -0.1666666666671802 0
0.2777777777777096 -0.05555555555624003 0
0.2777777777778464 0.0555555555548712 0
0.2777777777779833 0.1666666666661535 0
0.2777777777781202 0.2777777777774356 0
0.2777777777782571 0.3888888888887179 0
0.3888888888886494 -0.3888888888891284 0
0.3888888888887179 -0.2777777777782572 0
0.3888888888887863 -0.1666666666673855 0
0.3888888888888548 -0.05555555555651383 0
0.3888888888889231 0.05555555555459746 0
0.3888888888889916 0.1666666666659481 0
0.38888888888906 0.2777777777772987 0
0.3888888888891286 0.3888888888886494 0
$EndNodes
$Elements
1 81 1 81
2 1 3 81
1 1 5 37 36 
2 36 37 38 35 
3 35 38 39 34 
4 34 39 40 33 
5 33 40 41 32 
6 32 41 42 31 
7 31 42 43 30 
8 30 43 44 29 
9 29 44 28 4 
10 5 6 45 37 
11 37 45 46 38 
12 38 46 47 39 
13 39 47 48 40 
14 40 48 49 41 
15 41 49 50 42 
16 42 50 51 43 
17 43 51 52 44 
18 44 52 27 28 
19 6 7 53 45 
20 45 53 54 46 
21 46 54 55 47 
22 47 55 56 48 
23 48 56 57 49 
24 49 57 58 50 
25 50 58 59 51 
26 51 59 60 52 
27 52 60 26 27 
28 7 8 61 53 
29 53 61 62 54 
30 54 62 63 55 
31 55 63 64 56 
32 56 64 65 57 
33 57 65 66 58 
34 58 66 67 59 
35 59 67 68 60 
36 60 68 25 26 
37 8 9 69 61 
38 61 69 70 62 
39 62 70 71 63 
40 63 71 72 64 
41 64 72 73 65 
42 65 73 74 66 
43 66 74 75 67 
44 67 75 76 68 
45 68 76 24 25 
46 9 10 77 69 
47 69 77 78 70 
48 70 78 79 71 
49 71 79 80 72 
50 72 80 81 73 
51 73 81 82 74 
52 74 82 83 75 
53 75 83 84 76 
54 76 84 23 24 
55 10 11 85 77 
56 77 85 86 78 
57 78 86 87 79 
58 79 87 88 80 
59 80 88 89 81 
60 81 89 90 82 
61 82 90 91 83 
62 83 91 92 84 
63 84 92 22 23 
64 11 12 93 85 
65 85 93 94 86 
66 86 94 95 87 
67 87 95 96 88 
68 88 96 97 89 
69 89 97 98 90 
70 90 98 99 91 
71 91 99 100 92 
72 92 100 21 22 
73 12 2 13 93 
74 93 13 14 94 
75 94 14 15 95 
76 95 15 16 96 
77 96 16 17 97 
78 97 17 18 98 
79 98 18 19 99 
80 99 19 20 100 
81 100 20 3 21 
$EndElements
